<svg width="178" height="50" viewBox="0 0 178 50" fill="none" xmlns="http://www.w3.org/2000/svg">
<mask id="mask0_808_1306" style="mask-type:luminance" maskUnits="userSpaceOnUse" x="0" y="0" width="178" height="50">
<path d="M177.692 0H0V50H177.692V0Z" fill="white"/>
</mask>
<g mask="url(#mask0_808_1306)">
<path d="M81.3395 24.545H75.8493L74.9368 27.24H71.207L76.5735 12.575H80.6556L86.0218 27.24H82.2526L81.3395 24.545ZM80.4272 21.83L78.6072 16.395L76.762 21.83H80.4272Z" fill="black"/>
<path d="M90.9319 11.78V27.24H87.3911V11.78H90.9319Z" fill="black"/>
<path d="M100.048 16.0401C100.672 16.4329 101.164 17.0084 101.456 17.6901V15.5851H104.982V27.2401H101.456V25.1301C101.164 25.8118 100.672 26.3874 100.048 26.7801C99.3616 27.1959 98.5716 27.4058 97.7708 27.3851C96.8724 27.3958 95.9893 27.1459 95.227 26.6651C94.4485 26.1571 93.8308 25.4354 93.4462 24.5851C92.9908 23.5908 92.767 22.5049 92.7916 21.4101C92.7655 20.3119 92.9893 19.2223 93.4462 18.2251C93.8339 17.3794 94.4508 16.6617 95.227 16.1551C95.9931 15.6715 96.8816 15.4215 97.7862 15.4351C98.5816 15.4173 99.3655 15.6271 100.048 16.0401ZM97.0716 19.3201C96.5824 19.901 96.3339 20.6494 96.3778 21.4101C96.3339 22.1708 96.5824 22.9193 97.0716 23.5001C97.5593 23.9871 98.2178 24.2604 98.9047 24.2604C99.5908 24.2604 100.249 23.9871 100.737 23.5001C101.233 22.9301 101.489 22.1875 101.452 21.4301C101.492 20.6693 101.235 19.9227 100.737 19.3501C100.502 19.1003 100.219 18.9034 99.9024 18.7724C99.587 18.6414 99.2478 18.5793 98.907 18.5901C98.5678 18.5735 98.2293 18.6301 97.9139 18.756C97.5978 18.8818 97.3131 19.0742 97.077 19.3201H97.0716Z" fill="black"/>
<path d="M117.922 16.795C118.749 17.8319 119.165 19.1416 119.088 20.47V27.24H115.562V20.89C115.601 20.2233 115.382 19.5674 114.952 19.06C114.743 18.8395 114.489 18.6666 114.209 18.5527C113.928 18.4389 113.627 18.3868 113.325 18.4C113.004 18.3816 112.683 18.4338 112.384 18.553C112.085 18.6721 111.815 18.8553 111.594 19.09C111.142 19.6396 110.917 20.3429 110.964 21.055V27.24H107.428V15.585H110.969V17.715C111.289 17.027 111.808 16.4521 112.457 16.065C113.154 15.6476 113.953 15.4362 114.763 15.455C115.355 15.4296 115.945 15.5366 116.492 15.7683C117.038 16 117.526 16.3506 117.922 16.795Z" fill="black"/>
<path d="M137.831 23.675C137.222 24.7937 136.299 25.7066 135.178 26.3C133.92 26.9513 132.52 27.2745 131.106 27.24H125.576V12.47H131.106C132.521 12.4319 133.923 12.748 135.187 13.39C136.306 13.9761 137.226 14.8847 137.831 16C138.463 17.1801 138.78 18.5046 138.753 19.845C138.776 21.1801 138.458 22.4987 137.831 23.675ZM134.017 22.935C134.414 22.5265 134.721 22.0387 134.92 21.503C135.118 20.9673 135.203 20.3957 135.168 19.825C135.203 19.2535 135.118 18.6811 134.92 18.1445C134.722 17.608 134.414 17.1193 134.017 16.71C133.131 15.928 131.974 15.5308 130.798 15.605H129.117V24.04H130.798C131.974 24.1142 133.131 23.7171 134.017 22.935Z" fill="black"/>
<path d="M151.639 22.055H143.62C143.593 22.749 143.831 23.4268 144.283 23.95C144.703 24.3284 145.254 24.5258 145.816 24.5C146.284 24.5186 146.745 24.3796 147.126 24.105C147.457 23.8581 147.696 23.5058 147.805 23.105H151.56C151.416 23.9116 151.075 24.6694 150.568 25.31C150.044 25.9574 149.376 26.4712 148.619 26.81C147.794 27.1886 146.896 27.3781 145.99 27.365C144.94 27.3856 143.903 27.1379 142.974 26.645C142.102 26.1674 141.385 25.445 140.911 24.565C140.398 23.5882 140.142 22.4951 140.167 21.39C140.139 20.2827 140.391 19.1863 140.901 18.205C141.374 17.3268 142.091 16.6073 142.964 16.135C143.905 15.6649 144.94 15.4203 145.99 15.4203C147.04 15.4203 148.075 15.6649 149.016 16.135C149.865 16.592 150.566 17.2864 151.034 18.135C151.53 19.0407 151.782 20.0608 151.768 21.095C151.757 21.4185 151.713 21.7401 151.639 22.055ZM147.547 18.83C147.118 18.4453 146.56 18.2397 145.985 18.255C145.392 18.2339 144.813 18.4433 144.368 18.84C143.912 19.2932 143.652 19.9095 143.644 20.555H148.157C148.188 20.24 148.149 19.922 148.043 19.6237C147.938 19.3256 147.769 19.0545 147.547 18.83Z" fill="black"/>
<path d="M161.306 16.5451C162.186 17.288 162.771 18.3268 162.952 19.4701H159.639C159.561 19.0298 159.329 18.6325 158.984 18.3501C158.619 18.0705 158.168 17.9274 157.71 17.9451C157.385 17.9211 157.062 18.0131 156.797 18.2051C156.694 18.297 156.613 18.4113 156.56 18.5395C156.506 18.6677 156.482 18.8063 156.49 18.9451C156.49 19.123 156.543 19.2968 156.645 19.4427C156.746 19.5886 156.889 19.6993 157.055 19.7601C157.634 20.0015 158.236 20.184 158.85 20.3051C159.589 20.4694 160.316 20.6815 161.028 20.9401C161.606 21.1567 162.118 21.5202 162.516 21.9951C162.955 22.5512 163.175 23.2506 163.136 23.9601C163.146 24.5937 162.958 25.2144 162.6 25.7351C162.206 26.2772 161.667 26.6965 161.048 26.9451C160.284 27.2551 159.466 27.4048 158.642 27.3851C157.313 27.452 155.999 27.0856 154.893 26.3401C154.419 25.9837 154.023 25.534 153.726 25.0183C153.43 24.5026 153.242 23.9317 153.172 23.3401H156.589C156.603 23.5688 156.667 23.7915 156.776 23.9922C156.886 24.1928 157.04 24.3663 157.223 24.5001C157.643 24.7822 158.14 24.9223 158.642 24.9001C158.971 24.9238 159.296 24.8221 159.555 24.6151C159.657 24.5223 159.738 24.4077 159.791 24.2798C159.844 24.1519 159.868 24.0137 159.863 23.8751C159.871 23.6852 159.819 23.4976 159.713 23.34C159.608 23.1824 159.455 23.0633 159.277 23.0001C158.677 22.7581 158.056 22.5723 157.422 22.4451C156.704 22.3044 155.998 22.1089 155.31 21.8601C154.755 21.655 154.262 21.3109 153.876 20.8601C153.443 20.32 153.223 19.6385 153.256 18.9451C153.243 18.4582 153.342 17.9749 153.547 17.5338C153.752 17.0927 154.056 16.7062 154.436 16.4051C155.405 15.7032 156.584 15.3604 157.774 15.4351C159.046 15.3653 160.299 15.7593 161.306 16.5451Z" fill="black"/>
<path d="M171.755 16.0399C172.382 16.4324 172.875 17.0079 173.169 17.6899V15.5849H176.69V27.2399H173.169V25.1299C172.875 25.8119 172.382 26.3874 171.755 26.7799C171.069 27.1957 170.279 27.4056 169.479 27.3849C168.575 27.3985 167.686 27.1485 166.92 26.6649C166.15 26.1528 165.539 25.4317 165.159 24.5849C164.704 23.5907 164.48 22.5047 164.505 21.4099C164.478 20.3117 164.702 19.2221 165.159 18.2249C165.548 17.3802 166.165 16.6629 166.939 16.1549C167.706 15.6714 168.595 15.4213 169.498 15.4349C170.292 15.4181 171.075 15.6278 171.755 16.0399ZM168.779 19.3199C168.29 19.9007 168.042 20.6492 168.085 21.4099C168.042 22.1707 168.29 22.9191 168.779 23.4999C169.268 23.9872 169.928 24.2606 170.615 24.2606C171.302 24.2606 171.962 23.9872 172.45 23.4999C172.946 22.9298 173.202 22.1873 173.164 21.4299C173.205 20.6691 172.948 19.9225 172.45 19.3499C172.214 19.1005 171.928 18.9039 171.612 18.773C171.296 18.6421 170.956 18.5797 170.615 18.5899C170.275 18.5737 169.937 18.6304 169.622 18.7562C169.306 18.8821 169.021 19.0743 168.785 19.3199H168.779Z" fill="black"/>
<path d="M73.6188 32.4365C73.8199 32.4724 73.9903 32.5783 74.1303 32.7542C74.2703 32.9301 74.3403 33.1293 74.3403 33.3519C74.3403 33.5421 74.2901 33.7144 74.1896 33.8688C74.0926 34.0196 73.9509 34.1398 73.7642 34.2296C73.5776 34.3157 73.3603 34.3588 73.1126 34.3588H71.6157V30.6165H73.0426C73.2976 30.6165 73.5165 30.6596 73.6996 30.7457C73.8826 30.8319 74.0209 30.9486 74.1142 31.0957C74.2076 31.2393 74.2542 31.4009 74.2542 31.5803C74.2542 31.7957 74.1968 31.9752 74.0819 32.1188C73.967 32.2624 73.8126 32.3683 73.6188 32.4365ZM72.2296 32.1888H72.9888C73.1899 32.1888 73.346 32.144 73.4573 32.0542C73.5722 31.9609 73.6296 31.828 73.6296 31.6557C73.6296 31.487 73.5722 31.356 73.4573 31.2626C73.346 31.1657 73.1899 31.1173 72.9888 31.1173H72.2296V32.1888ZM73.0588 33.858C73.267 33.858 73.4303 33.8078 73.5488 33.7073C73.6673 33.6067 73.7265 33.4667 73.7265 33.2873C73.7265 33.1042 73.6637 32.9588 73.538 32.8511C73.4124 32.7434 73.2455 32.6896 73.0373 32.6896H72.2296V33.858H73.0588ZM75.2874 32.8619C75.2874 32.564 75.3484 32.3001 75.4705 32.0703C75.5961 31.8406 75.7649 31.6629 75.9766 31.5373C76.192 31.408 76.4289 31.3434 76.6874 31.3434C76.9207 31.3434 77.1232 31.3901 77.2955 31.4834C77.4716 31.5732 77.6116 31.6863 77.7155 31.8226V31.3919H78.3347V34.3588H77.7155V33.9173C77.6116 34.0573 77.4701 34.174 77.2901 34.2673C77.1109 34.3606 76.9064 34.4073 76.6766 34.4073C76.4218 34.4073 76.1884 34.3426 75.9766 34.2134C75.7649 34.0806 75.5961 33.8975 75.4705 33.6642C75.3484 33.4273 75.2874 33.1598 75.2874 32.8619ZM77.7155 32.8726C77.7155 32.668 77.6724 32.4903 77.5863 32.3396C77.504 32.1888 77.3947 32.074 77.2578 31.995C77.1216 31.916 76.9747 31.8765 76.8166 31.8765C76.6587 31.8765 76.5115 31.916 76.3751 31.995C76.2387 32.0703 76.1274 32.1834 76.0413 32.3342C75.9587 32.4813 75.9174 32.6573 75.9174 32.8619C75.9174 33.0665 75.9587 33.246 76.0413 33.4003C76.1274 33.5547 76.2387 33.6732 76.3751 33.7557C76.5151 33.8347 76.6623 33.8742 76.8166 33.8742C76.9747 33.8742 77.1216 33.8347 77.2578 33.7557C77.3947 33.6767 77.504 33.5619 77.5863 33.4111C77.6724 33.2567 77.7155 33.0773 77.7155 32.8726ZM81.1232 31.3434C81.3563 31.3434 81.5647 31.3919 81.7478 31.4888C81.934 31.5857 82.0793 31.7293 82.1839 31.9196C82.2878 32.1098 82.3401 32.3396 82.3401 32.6088V34.3588H81.7316V32.7003C81.7316 32.4347 81.6647 32.2319 81.5324 32.0919C81.3993 31.9483 81.2178 31.8765 80.9886 31.8765C80.7586 31.8765 80.5755 31.9483 80.4393 32.0919C80.3063 32.2319 80.2401 32.4347 80.2401 32.7003V34.3588H79.6263V31.3919H80.2401V31.7311C80.3401 31.609 80.4678 31.514 80.6224 31.4457C80.7801 31.3775 80.947 31.3434 81.1232 31.3434ZM84.8032 31.3434C85.0324 31.3434 85.2355 31.3901 85.4116 31.4834C85.5909 31.5732 85.7309 31.6863 85.8316 31.8226V31.3919H86.4509V34.4073C86.4509 34.6801 86.3932 34.9224 86.2786 35.1342C86.1632 35.3496 85.9963 35.5183 85.7778 35.6403C85.5624 35.7624 85.3039 35.8234 85.0024 35.8234C84.6001 35.8234 84.2663 35.7283 84.0009 35.538C83.7347 35.3513 83.584 35.0965 83.5486 34.7734H84.157C84.2032 34.9278 84.3024 35.0516 84.4532 35.145C84.607 35.2419 84.7901 35.2903 85.0024 35.2903C85.2501 35.2903 85.4493 35.215 85.6001 35.0642C85.754 34.9134 85.8316 34.6944 85.8316 34.4073V33.9119C85.727 34.0519 85.5855 34.1703 85.4063 34.2673C85.2301 34.3606 85.0293 34.4073 84.8032 34.4073C84.5447 34.4073 84.3078 34.3426 84.0924 34.2134C83.8801 34.0806 83.7116 33.8975 83.5863 33.6642C83.464 33.4273 83.4032 33.1598 83.4032 32.8619C83.4032 32.564 83.464 32.3001 83.5863 32.0703C83.7116 31.8406 83.8801 31.6629 84.0924 31.5373C84.3078 31.408 84.5447 31.3434 84.8032 31.3434ZM85.8316 32.8726C85.8316 32.668 85.7886 32.4903 85.7024 32.3396C85.6193 32.1888 85.5101 32.074 85.374 31.995C85.237 31.916 85.0901 31.8765 84.9324 31.8765C84.774 31.8765 84.627 31.916 84.4909 31.995C84.3539 32.0703 84.2432 32.1834 84.157 32.3342C84.074 32.4813 84.0332 32.6573 84.0332 32.8619C84.0332 33.0665 84.074 33.246 84.157 33.4003C84.2432 33.5547 84.3539 33.6732 84.4909 33.7557C84.6309 33.8347 84.7778 33.8742 84.9324 33.8742C85.0901 33.8742 85.237 33.8347 85.374 33.7557C85.5101 33.6767 85.6193 33.5619 85.7024 33.4111C85.7886 33.2567 85.8316 33.0773 85.8316 32.8726ZM90.4286 31.3919V34.3588H89.8147V34.0088C89.7178 34.1309 89.5901 34.2278 89.4324 34.2996C89.2778 34.3678 89.1124 34.4019 88.937 34.4019C88.7032 34.4019 88.4932 34.3534 88.307 34.2565C88.124 34.1596 87.9786 34.016 87.8709 33.8257C87.7663 33.6355 87.7147 33.4057 87.7147 33.1365V31.3919H88.3232V33.045C88.3232 33.3106 88.3893 33.5152 88.5224 33.6588C88.6547 33.7988 88.8363 33.8688 89.0663 33.8688C89.2955 33.8688 89.477 33.7988 89.6101 33.6588C89.7463 33.5152 89.8147 33.3106 89.8147 33.045V31.3919H90.4286ZM93.2201 31.3434C93.4532 31.3434 93.6616 31.3919 93.8447 31.4888C94.0309 31.5857 94.1763 31.7293 94.2809 31.9196C94.3847 32.1098 94.437 32.3396 94.437 32.6088V34.3588H93.8286V32.7003C93.8286 32.4347 93.7616 32.2319 93.6293 32.0919C93.4963 31.9483 93.3147 31.8765 93.0855 31.8765C92.8555 31.8765 92.6724 31.9483 92.5363 32.0919C92.4032 32.2319 92.337 32.4347 92.337 32.7003V34.3588H91.7232V31.3919H92.337V31.7311C92.437 31.609 92.5647 31.514 92.7193 31.4457C92.877 31.3775 93.0439 31.3434 93.2201 31.3434ZM98.2016 30.6165V34.3588H97.5878V30.6165H98.2016ZM100.989 31.3434C101.222 31.3434 101.431 31.3919 101.614 31.4888C101.8 31.5857 101.945 31.7293 102.05 31.9196C102.154 32.1098 102.206 32.3396 102.206 32.6088V34.3588H101.598V32.7003C101.598 32.4347 101.531 32.2319 101.399 32.0919C101.265 31.9483 101.084 31.8765 100.855 31.8765C100.625 31.8765 100.442 31.9483 100.305 32.0919C100.172 32.2319 100.106 32.4347 100.106 32.7003V34.3588H99.4924V31.3919H100.106V31.7311C100.206 31.609 100.334 31.514 100.489 31.4457C100.646 31.3775 100.813 31.3434 100.989 31.3434ZM103.269 32.8619C103.269 32.564 103.33 32.3001 103.452 32.0703C103.578 31.8406 103.746 31.6629 103.958 31.5373C104.173 31.408 104.412 31.3434 104.674 31.3434C104.868 31.3434 105.059 31.3865 105.245 31.4726C105.435 31.5552 105.586 31.6665 105.697 31.8065V30.3742H106.316V34.3588H105.697V33.9119C105.597 34.0555 105.457 34.174 105.277 34.2673C105.102 34.3606 104.899 34.4073 104.669 34.4073C104.41 34.4073 104.173 34.3426 103.958 34.2134C103.746 34.0806 103.578 33.8975 103.452 33.6642C103.33 33.4273 103.269 33.1598 103.269 32.8619ZM105.697 32.8726C105.697 32.668 105.654 32.4903 105.568 32.3396C105.485 32.1888 105.376 32.074 105.239 31.995C105.103 31.916 104.956 31.8765 104.798 31.8765C104.64 31.8765 104.493 31.916 104.356 31.995C104.22 32.0703 104.109 32.1834 104.022 32.3342C103.94 32.4813 103.899 32.6573 103.899 32.8619C103.899 33.0665 103.94 33.246 104.022 33.4003C104.109 33.5547 104.22 33.6732 104.356 33.7557C104.496 33.8347 104.644 33.8742 104.798 33.8742C104.956 33.8742 105.103 33.8347 105.239 33.7557C105.376 33.6767 105.485 33.5619 105.568 33.4111C105.654 33.2567 105.697 33.0773 105.697 32.8726ZM108.895 34.4073C108.615 34.4073 108.362 34.3444 108.135 34.2188C107.909 34.0896 107.732 33.9101 107.602 33.6803C107.473 33.447 107.409 33.1778 107.409 32.8726C107.409 32.5711 107.475 32.3036 107.608 32.0703C107.74 31.837 107.922 31.6575 108.152 31.5319C108.381 31.4063 108.638 31.3434 108.922 31.3434C109.205 31.3434 109.462 31.4063 109.692 31.5319C109.921 31.6575 110.102 31.837 110.235 32.0703C110.368 32.3036 110.435 32.5711 110.435 32.8726C110.435 33.1742 110.366 33.4416 110.23 33.675C110.093 33.9083 109.907 34.0896 109.67 34.2188C109.436 34.3444 109.178 34.4073 108.895 34.4073ZM108.895 33.8742C109.052 33.8742 109.199 33.8365 109.336 33.7611C109.476 33.6857 109.589 33.5726 109.675 33.4219C109.762 33.2711 109.805 33.088 109.805 32.8726C109.805 32.6573 109.763 32.476 109.681 32.3288C109.598 32.178 109.489 32.065 109.352 31.9896C109.215 31.9142 109.069 31.8765 108.911 31.8765C108.752 31.8765 108.605 31.9142 108.469 31.9896C108.336 32.065 108.23 32.178 108.152 32.3288C108.072 32.476 108.033 32.6573 108.033 32.8726C108.033 33.1921 108.114 33.4398 108.275 33.6157C108.44 33.788 108.647 33.8742 108.895 33.8742ZM113.022 31.3434C113.256 31.3434 113.464 31.3919 113.647 31.4888C113.834 31.5857 113.979 31.7293 114.083 31.9196C114.188 32.1098 114.239 32.3396 114.239 32.6088V34.3588H113.631V32.7003C113.631 32.4347 113.565 32.2319 113.432 32.0919C113.299 31.9483 113.118 31.8765 112.888 31.8765C112.659 31.8765 112.475 31.9483 112.339 32.0919C112.206 32.2319 112.139 32.4347 112.139 32.7003V34.3588H111.525V31.3919H112.139V31.7311C112.24 31.609 112.368 31.514 112.522 31.4457C112.68 31.3775 112.847 31.3434 113.022 31.3434ZM118.226 32.8026C118.226 32.914 118.219 33.0144 118.205 33.1042H115.938C115.956 33.3411 116.044 33.5313 116.202 33.675C116.36 33.8186 116.554 33.8903 116.783 33.8903C117.114 33.8903 117.347 33.7521 117.483 33.4757H118.145C118.056 33.7486 117.892 33.9729 117.655 34.1488C117.422 34.3211 117.132 34.4073 116.783 34.4073C116.5 34.4073 116.245 34.3444 116.019 34.2188C115.796 34.0896 115.62 33.9101 115.491 33.6803C115.365 33.447 115.302 33.1778 115.302 32.8726C115.302 32.5675 115.364 32.3001 115.485 32.0703C115.612 31.837 115.785 31.6575 116.008 31.5319C116.234 31.4063 116.492 31.3434 116.783 31.3434C117.063 31.3434 117.313 31.4044 117.532 31.5265C117.751 31.6486 117.922 31.8209 118.043 32.0434C118.165 32.2624 118.226 32.5155 118.226 32.8026ZM117.585 32.6088C117.582 32.3826 117.502 32.2013 117.343 32.065C117.185 31.9286 116.99 31.8603 116.756 31.8603C116.545 31.8603 116.363 31.9286 116.212 32.065C116.062 32.1978 115.972 32.379 115.943 32.6088H117.585ZM120.392 34.4073C120.159 34.4073 119.949 34.366 119.762 34.2834C119.579 34.1973 119.434 34.0824 119.326 33.9388C119.219 33.7916 119.161 33.6283 119.154 33.4488H119.789C119.8 33.5744 119.859 33.6803 119.967 33.7665C120.078 33.849 120.216 33.8903 120.382 33.8903C120.554 33.8903 120.686 33.858 120.78 33.7934C120.877 33.7252 120.925 33.639 120.925 33.535C120.925 33.4236 120.872 33.3411 120.764 33.2873C120.659 33.2334 120.492 33.1742 120.263 33.1096C120.04 33.0486 119.859 32.9893 119.719 32.9319C119.579 32.8744 119.457 32.7865 119.353 32.668C119.252 32.5496 119.202 32.3934 119.202 32.1996C119.202 32.0416 119.249 31.898 119.342 31.7688C119.435 31.636 119.569 31.5319 119.741 31.4565C119.916 31.3811 120.118 31.3434 120.344 31.3434C120.681 31.3434 120.952 31.4296 121.157 31.6019C121.365 31.7706 121.476 32.0021 121.491 32.2965H120.877C120.866 32.1636 120.812 32.0578 120.715 31.9788C120.619 31.8998 120.487 31.8603 120.322 31.8603C120.161 31.8603 120.037 31.8909 119.951 31.9519C119.865 32.0129 119.822 32.0936 119.822 32.1942C119.822 32.2732 119.85 32.3396 119.908 32.3934C119.965 32.4473 120.035 32.4903 120.118 32.5226C120.2 32.5513 120.322 32.589 120.484 32.6357C120.699 32.6932 120.875 32.7524 121.012 32.8134C121.152 32.8709 121.272 32.957 121.372 33.0719C121.472 33.1867 121.525 33.3393 121.529 33.5296C121.529 33.6983 121.482 33.849 121.389 33.9819C121.295 34.1147 121.162 34.2188 120.99 34.2942C120.821 34.3696 120.622 34.4073 120.392 34.4073ZM122.989 30.9988C122.877 30.9988 122.784 30.9611 122.709 30.8857C122.633 30.8103 122.595 30.717 122.595 30.6057C122.595 30.4944 122.633 30.4011 122.709 30.3257C122.784 30.2503 122.877 30.2126 122.989 30.2126C123.096 30.2126 123.188 30.2503 123.263 30.3257C123.339 30.4011 123.376 30.4944 123.376 30.6057C123.376 30.717 123.339 30.8103 123.263 30.8857C123.188 30.9611 123.096 30.9988 122.989 30.9988ZM123.29 31.3919V34.3588H122.676V31.3919H123.29ZM124.376 32.8619C124.376 32.564 124.437 32.3001 124.559 32.0703C124.685 31.8406 124.853 31.6629 125.065 31.5373C125.281 31.408 125.518 31.3434 125.776 31.3434C126.009 31.3434 126.212 31.3901 126.385 31.4834C126.56 31.5732 126.7 31.6863 126.805 31.8226V31.3919H127.424V34.3588H126.805V33.9173C126.7 34.0573 126.559 34.174 126.379 34.2673C126.199 34.3606 125.995 34.4073 125.765 34.4073C125.51 34.4073 125.277 34.3426 125.065 34.2134C124.853 34.0806 124.685 33.8975 124.559 33.6642C124.437 33.4273 124.376 33.1598 124.376 32.8619ZM126.805 32.8726C126.805 32.668 126.762 32.4903 126.675 32.3396C126.592 32.1888 126.483 32.074 126.347 31.995C126.21 31.916 126.063 31.8765 125.905 31.8765C125.747 31.8765 125.6 31.916 125.464 31.995C125.327 32.0703 125.216 32.1834 125.13 32.3342C125.047 32.4813 125.006 32.6573 125.006 32.8619C125.006 33.0665 125.047 33.246 125.13 33.4003C125.216 33.5547 125.327 33.6732 125.464 33.7557C125.604 33.8347 125.751 33.8742 125.905 33.8742C126.063 33.8742 126.21 33.8347 126.347 33.7557C126.483 33.6767 126.592 33.5619 126.675 33.4111C126.762 33.2567 126.805 33.0773 126.805 32.8726ZM134.539 30.6165V34.3588H133.925V31.7957L132.784 34.3588H132.359L131.212 31.7957V34.3588H130.598V30.6165H131.26L132.574 33.5511L133.882 30.6165H134.539ZM135.626 32.8619C135.626 32.564 135.687 32.3001 135.809 32.0703C135.935 31.8406 136.104 31.6629 136.315 31.5373C136.531 31.408 136.768 31.3434 137.026 31.3434C137.259 31.3434 137.462 31.3901 137.635 31.4834C137.811 31.5732 137.951 31.6863 138.055 31.8226V31.3919H138.674V34.3588H138.055V33.9173C137.951 34.0573 137.809 34.174 137.629 34.2673C137.45 34.3606 137.245 34.4073 137.015 34.4073C136.761 34.4073 136.527 34.3426 136.315 34.2134C136.104 34.0806 135.935 33.8975 135.809 33.6642C135.687 33.4273 135.626 33.1598 135.626 32.8619ZM138.055 32.8726C138.055 32.668 138.012 32.4903 137.925 32.3396C137.843 32.1888 137.733 32.074 137.597 31.995C137.461 31.916 137.313 31.8765 137.155 31.8765C136.998 31.8765 136.85 31.916 136.714 31.995C136.578 32.0703 136.466 32.1834 136.38 32.3342C136.298 32.4813 136.256 32.6573 136.256 32.8619C136.256 33.0665 136.298 33.246 136.38 33.4003C136.466 33.5547 136.578 33.6732 136.714 33.7557C136.854 33.8347 137.001 33.8742 137.155 33.8742C137.313 33.8742 137.461 33.8347 137.597 33.7557C137.733 33.6767 137.843 33.5619 137.925 33.4111C138.012 33.2567 138.055 33.0773 138.055 32.8726ZM140.277 30.9988C140.165 30.9988 140.072 30.9611 139.997 30.8857C139.922 30.8103 139.884 30.717 139.884 30.6057C139.884 30.4944 139.922 30.4011 139.997 30.3257C140.072 30.2503 140.165 30.2126 140.277 30.2126C140.385 30.2126 140.476 30.2503 140.552 30.3257C140.627 30.4011 140.665 30.4944 140.665 30.6057C140.665 30.717 140.627 30.8103 140.552 30.8857C140.476 30.9611 140.385 30.9988 140.277 30.9988ZM140.579 34.9403C140.579 35.2311 140.505 35.4411 140.358 35.5703C140.214 35.7032 140.004 35.7696 139.728 35.7696H139.41V35.2526H139.62C139.745 35.2526 139.834 35.2275 139.884 35.1773C139.938 35.1306 139.965 35.0516 139.965 34.9403V31.3919H140.579V34.9403ZM144.556 31.3919V34.3588H143.942V34.0088C143.845 34.1309 143.718 34.2278 143.56 34.2996C143.405 34.3678 143.24 34.4019 143.065 34.4019C142.831 34.4019 142.621 34.3534 142.435 34.2565C142.252 34.1596 142.106 34.016 141.999 33.8257C141.894 33.6355 141.842 33.4057 141.842 33.1365V31.3919H142.451V33.045C142.451 33.3106 142.517 33.5152 142.65 33.6588C142.782 33.7988 142.964 33.8688 143.194 33.8688C143.423 33.8688 143.605 33.7988 143.738 33.6588C143.874 33.5152 143.942 33.3106 143.942 33.045V31.3919H144.556ZM147.529 32.8619C147.529 32.564 147.59 32.3001 147.712 32.0703C147.838 31.8406 148.007 31.6629 148.219 31.5373C148.434 31.408 148.672 31.3434 148.935 31.3434C149.129 31.3434 149.319 31.3865 149.505 31.4726C149.695 31.5552 149.846 31.6665 149.958 31.8065V30.3742H150.577V34.3588H149.958V33.9119C149.857 34.0555 149.717 34.174 149.538 34.2673C149.362 34.3606 149.159 34.4073 148.929 34.4073C148.671 34.4073 148.434 34.3426 148.219 34.2134C148.007 34.0806 147.838 33.8975 147.712 33.6642C147.59 33.4273 147.529 33.1598 147.529 32.8619ZM149.958 32.8726C149.958 32.668 149.915 32.4903 149.829 32.3396C149.746 32.1888 149.636 32.074 149.5 31.995C149.364 31.916 149.216 31.8765 149.059 31.8765C148.901 31.8765 148.753 31.916 148.617 31.995C148.481 32.0703 148.369 32.1834 148.283 32.3342C148.201 32.4813 148.159 32.6573 148.159 32.8619C148.159 33.0665 148.201 33.246 148.283 33.4003C148.369 33.5547 148.481 33.6732 148.617 33.7557C148.757 33.8347 148.904 33.8742 149.059 33.8742C149.216 33.8742 149.364 33.8347 149.5 33.7557C149.636 33.6767 149.746 33.5619 149.829 33.4111C149.915 33.2567 149.958 33.0773 149.958 32.8726ZM151.663 32.8619C151.663 32.564 151.725 32.3001 151.846 32.0703C151.972 31.8406 152.141 31.6629 152.352 31.5373C152.568 31.408 152.805 31.3434 153.063 31.3434C153.297 31.3434 153.499 31.3901 153.672 31.4834C153.848 31.5732 153.988 31.6863 154.092 31.8226V31.3919H154.711V34.3588H154.092V33.9173C153.988 34.0573 153.846 34.174 153.666 34.2673C153.487 34.3606 153.282 34.4073 153.052 34.4073C152.798 34.4073 152.565 34.3426 152.352 34.2134C152.141 34.0806 151.972 33.8975 151.846 33.6642C151.725 33.4273 151.663 33.1598 151.663 32.8619ZM154.092 32.8726C154.092 32.668 154.049 32.4903 153.962 32.3396C153.88 32.1888 153.771 32.074 153.634 31.995C153.498 31.916 153.351 31.8765 153.192 31.8765C153.035 31.8765 152.888 31.916 152.751 31.995C152.615 32.0703 152.503 32.1834 152.417 32.3342C152.335 32.4813 152.293 32.6573 152.293 32.8619C152.293 33.0665 152.335 33.246 152.417 33.4003C152.503 33.5547 152.615 33.6732 152.751 33.7557C152.891 33.8347 153.039 33.8742 153.192 33.8742C153.351 33.8742 153.498 33.8347 153.634 33.7557C153.771 33.6767 153.88 33.5619 153.962 33.4111C154.049 33.2567 154.092 33.0773 154.092 32.8726ZM156.615 31.8226C156.705 31.6719 156.824 31.5552 156.971 31.4726C157.122 31.3865 157.299 31.3434 157.504 31.3434V31.9788H157.348C157.108 31.9788 156.925 32.0398 156.799 32.1619C156.677 32.284 156.615 32.4957 156.615 32.7973V34.3588H156.002V31.3919H156.615V31.8226ZM158.865 30.9988C158.754 30.9988 158.661 30.9611 158.585 30.8857C158.51 30.8103 158.472 30.717 158.472 30.6057C158.472 30.4944 158.51 30.4011 158.585 30.3257C158.661 30.2503 158.754 30.2126 158.865 30.2126C158.973 30.2126 159.065 30.2503 159.14 30.3257C159.215 30.4011 159.253 30.4944 159.253 30.6057C159.253 30.717 159.215 30.8103 159.14 30.8857C159.065 30.9611 158.973 30.9988 158.865 30.9988ZM159.167 31.3919V34.3588H158.553V31.3919H159.167ZM163.563 30.6165C163.962 30.6165 164.31 30.6936 164.608 30.848C164.909 30.9988 165.141 31.2178 165.302 31.505C165.468 31.7886 165.55 32.1206 165.55 32.5011C165.55 32.8816 165.468 33.2119 165.302 33.4919C165.141 33.7719 164.909 33.9873 164.608 34.138C164.31 34.2852 163.962 34.3588 163.563 34.3588H162.341V30.6165H163.563ZM163.563 33.858C164.001 33.858 164.337 33.7396 164.57 33.5026C164.803 33.2657 164.92 32.9319 164.92 32.5011C164.92 32.0667 164.803 31.7275 164.57 31.4834C164.337 31.2393 164.001 31.1173 163.563 31.1173H162.955V33.858H163.563ZM169.362 32.8026C169.362 32.914 169.355 33.0144 169.341 33.1042H167.074C167.092 33.3411 167.179 33.5313 167.338 33.675C167.495 33.8186 167.689 33.8903 167.919 33.8903C168.249 33.8903 168.482 33.7521 168.619 33.4757H169.282C169.192 33.7486 169.029 33.9729 168.792 34.1488C168.558 34.3211 168.267 34.4073 167.919 34.4073C167.635 34.4073 167.381 34.3444 167.155 34.2188C166.932 34.0896 166.756 33.9101 166.627 33.6803C166.501 33.447 166.439 33.1778 166.439 32.8726C166.439 32.5675 166.499 32.3001 166.622 32.0703C166.747 31.837 166.921 31.6575 167.144 31.5319C167.37 31.4063 167.629 31.3434 167.919 31.3434C168.199 31.3434 168.449 31.4044 168.668 31.5265C168.886 31.6486 169.057 31.8209 169.179 32.0434C169.301 32.2624 169.362 32.5155 169.362 32.8026ZM168.722 32.6088C168.718 32.3826 168.637 32.2013 168.479 32.065C168.321 31.9286 168.125 31.8603 167.892 31.8603C167.68 31.8603 167.499 31.9286 167.349 32.065C167.198 32.1978 167.108 32.379 167.079 32.6088H168.722ZM171.528 34.4073C171.295 34.4073 171.085 34.366 170.898 34.2834C170.715 34.1973 170.569 34.0824 170.462 33.9388C170.354 33.7916 170.296 33.6283 170.289 33.4488H170.925C170.935 33.5744 170.995 33.6803 171.102 33.7665C171.214 33.849 171.352 33.8903 171.517 33.8903C171.689 33.8903 171.822 33.858 171.916 33.7934C172.012 33.7252 172.061 33.639 172.061 33.535C172.061 33.4236 172.007 33.3411 171.899 33.2873C171.795 33.2334 171.629 33.1742 171.399 33.1096C171.176 33.0486 170.995 32.9893 170.855 32.9319C170.715 32.8744 170.592 32.7865 170.489 32.668C170.388 32.5496 170.338 32.3934 170.338 32.1996C170.338 32.0416 170.385 31.898 170.478 31.7688C170.571 31.636 170.704 31.5319 170.876 31.4565C171.052 31.3811 171.253 31.3434 171.479 31.3434C171.817 31.3434 172.088 31.4296 172.292 31.6019C172.501 31.7706 172.612 32.0021 172.626 32.2965H172.012C172.002 32.1636 171.948 32.0578 171.851 31.9788C171.754 31.8998 171.623 31.8603 171.458 31.8603C171.296 31.8603 171.172 31.8909 171.086 31.9519C171 32.0129 170.957 32.0936 170.957 32.1942C170.957 32.2732 170.985 32.3396 171.043 32.3934C171.101 32.4473 171.171 32.4903 171.253 32.5226C171.335 32.5513 171.458 32.589 171.619 32.6357C171.835 32.6932 172.011 32.7524 172.147 32.8134C172.287 32.8709 172.407 32.957 172.508 33.0719C172.609 33.1867 172.66 33.3393 172.664 33.5296C172.664 33.6983 172.617 33.849 172.524 33.9819C172.431 34.1147 172.298 34.2188 172.125 34.2942C171.957 34.3696 171.758 34.4073 171.528 34.4073ZM173.607 32.8619C173.607 32.564 173.669 32.3001 173.79 32.0703C173.916 31.8406 174.085 31.6629 174.296 31.5373C174.512 31.408 174.749 31.3434 175.007 31.3434C175.241 31.3434 175.443 31.3901 175.616 31.4834C175.792 31.5732 175.932 31.6863 176.035 31.8226V31.3919H176.655V34.3588H176.035V33.9173C175.932 34.0573 175.79 34.174 175.61 34.2673C175.431 34.3606 175.226 34.4073 174.996 34.4073C174.742 34.4073 174.509 34.3426 174.296 34.2134C174.085 34.0806 173.916 33.8975 173.79 33.6642C173.669 33.4273 173.607 33.1598 173.607 32.8619ZM176.035 32.8726C176.035 32.668 175.992 32.4903 175.906 32.3396C175.824 32.1888 175.715 32.074 175.578 31.995C175.442 31.916 175.295 31.8765 175.136 31.8765C174.979 31.8765 174.832 31.916 174.695 31.995C174.559 32.0703 174.447 32.1834 174.361 32.3342C174.279 32.4813 174.237 32.6573 174.237 32.8619C174.237 33.0665 174.279 33.246 174.361 33.4003C174.447 33.5547 174.559 33.6732 174.695 33.7557C174.835 33.8347 174.982 33.8742 175.136 33.8742C175.295 33.8742 175.442 33.8347 175.578 33.7557C175.715 33.6767 175.824 33.5619 175.906 33.4111C175.992 33.2567 176.035 33.0773 176.035 32.8726Z" fill="black"/>
<path d="M58.9268 3.685V15.6C57.683 11.6499 55.0934 8.27069 51.6162 6.06V3.685C51.6162 2.70768 52.0013 1.77038 52.6868 1.07932C53.3723 0.38824 54.3021 0 55.2715 0C56.241 0 57.1707 0.38824 57.8562 1.07932C58.5417 1.77038 58.9268 2.70768 58.9268 3.685Z" fill="#6FBD44"/>
<path d="M37.6942 38.38C37.0285 37.6972 36.1218 37.3076 35.1721 37.2964C34.2224 37.2852 33.3069 37.6532 32.6254 38.32L29.6198 41.285L26.6787 38.255C26.0129 37.5722 25.1062 37.1826 24.1566 37.1714C23.2069 37.1602 22.2913 37.5282 21.6099 38.195C20.931 38.8664 20.5436 39.7815 20.5325 40.7402C20.5213 41.6988 20.8873 42.6228 21.5503 43.31L27.006 48.915C27.6709 49.5949 28.5738 49.9848 29.5208 50.0006C30.4677 50.0165 31.383 49.6572 32.0699 49L37.6347 43.5C38.3151 42.8285 38.7034 41.9122 38.7146 40.9524C38.7257 39.9926 38.3588 39.0675 37.6942 38.38Z" fill="#6FBD44"/>
<path d="M42.3661 4.18506C39.9936 4.18259 37.6482 4.69534 35.4898 5.6884C33.3314 6.68147 31.4104 8.1316 29.8577 9.94007C29.7287 10.0901 29.5998 10.2401 29.4807 10.3951C27.1871 13.2405 25.8899 16.77 25.7907 20.4351C25.7907 20.6201 25.7907 20.8101 25.7907 20.9951C25.7907 21.1801 25.7907 21.3101 25.7907 21.4651C25.6715 23.7921 24.6915 25.9897 23.0439 27.6241C21.3964 29.2585 19.2011 30.2111 16.8911 30.2938C14.5812 30.3766 12.3243 29.5835 10.5659 28.0711C8.8074 26.5587 7.67514 24.4368 7.39241 22.1241C7.10967 19.8115 7.69702 17.4758 9.03855 15.5783C10.3802 13.6808 12.3785 12.359 14.6392 11.8738C16.9 11.3887 19.2591 11.7754 21.2509 12.9576C23.2428 14.1398 24.7228 16.0318 25.3989 18.2601C25.8565 15.205 27.1227 12.3308 29.0641 9.94007C26.8529 7.36837 23.9149 5.53938 20.6439 4.69814C17.3727 3.85688 13.9246 4.04357 10.7617 5.23317C7.59873 6.42277 4.87196 8.55845 2.94672 11.3541C1.02148 14.1498 -0.0102539 17.4718 -0.0102539 20.8751C-0.0102539 24.2784 1.02148 27.6004 2.94672 30.396C4.87196 33.1917 7.59873 35.3274 10.7617 36.5169C13.9246 37.7065 17.3727 37.8932 20.6439 37.052C23.9149 36.2108 26.8529 34.3818 29.0641 31.8101C29.1931 31.6601 29.322 31.5051 29.446 31.3501C31.6782 28.5705 32.9602 25.1385 33.1013 21.5651C33.1013 21.3751 33.1013 21.1801 33.1013 20.9901C33.1013 20.8001 33.1013 20.5351 33.1013 20.3151C33.149 19.6141 33.2772 18.9212 33.4832 18.2501C34.1246 16.107 35.5089 14.2678 37.3835 13.0681C39.2581 11.8685 41.4981 11.3882 43.6947 11.715C45.8914 12.0418 47.8982 13.1539 49.3492 14.8483C50.8002 16.5428 51.5985 18.7066 51.5985 20.9451C51.5985 23.1835 50.8002 25.3474 49.3492 27.0418C47.8982 28.7362 45.8914 29.8483 43.6947 30.1751C41.4981 30.5019 39.2581 30.0216 37.3835 28.8219C35.5089 27.6222 34.1246 25.7831 33.4832 23.6401C33.0117 26.6399 31.7608 29.4605 29.8577 31.8151C31.6743 33.9278 33.9882 35.5469 36.5871 36.5235C39.1859 37.5001 41.9865 37.8031 44.7317 37.4046C47.4769 37.0061 50.0789 35.919 52.2989 34.2428C54.5188 32.5667 56.2856 30.3554 57.4372 27.8117C58.5887 25.268 59.0881 22.4735 58.8896 19.6846C58.6909 16.8958 57.8007 14.2018 56.3006 11.8501C54.8004 9.4983 52.7384 7.56403 50.3037 6.22477C47.869 4.8855 45.1396 4.18415 42.3661 4.18506Z" fill="#027ABF"/>
</g>
</svg>
