<svg width="21" height="21" viewBox="0 0 21 21" fill="none" xmlns="http://www.w3.org/2000/svg">
<g clip-path="url(#clip0)">
<path d="M1.95914 16.5968L1.93863 16.6218L2.39322 17.1788C2.51968 17.3336 2.65042 17.484 2.78329 17.6267C2.85165 17.7002 2.92023 17.7733 2.96979 17.8183L3.0123 17.8604C3.12424 17.9724 3.2366 18.0843 3.35602 18.1994C3.4545 18.293 3.55725 18.3827 3.67239 18.4821L3.71875 18.5201C3.75507 18.5472 3.78925 18.5756 3.82428 18.6049L3.89114 18.66C4.03641 18.7805 4.18167 18.8907 4.30942 18.9794C4.47733 19.1054 4.66168 19.231 4.87018 19.3637L4.84839 19.3725L5.02698 19.4615C5.08765 19.4987 5.14767 19.5359 5.21326 19.575C5.39783 19.682 5.58304 19.7837 5.74667 19.8627C5.81012 19.896 5.87784 19.9298 5.94556 19.9629L6.07117 20.0238C6.14551 20.0575 6.22092 20.0864 6.29526 20.1191C6.36874 20.1515 6.44266 20.1829 6.51743 20.2141C6.54797 20.2267 6.57788 20.2408 6.60843 20.253L6.78787 20.3532H6.86349C6.86392 20.3532 6.86478 20.3536 6.8652 20.3536L7.00577 20.4066L7.01047 20.4045C7.0517 20.4188 7.09271 20.4342 7.13351 20.4476C7.18201 20.4639 7.23199 20.478 7.28091 20.4938C7.34607 20.5147 7.41122 20.5352 7.47681 20.5549C7.49561 20.5606 7.51398 20.5672 7.53299 20.5724C7.57742 20.5886 7.60818 20.5961 7.61288 20.5969C7.69876 20.6224 7.78186 20.6441 7.86111 20.6642C7.89594 20.6734 7.9314 20.6809 7.96643 20.6897C7.97647 20.6918 7.98929 20.6954 7.99933 20.6976C8.0036 20.6988 8.00809 20.6993 8.01236 20.7001C8.31335 20.7736 8.61884 20.8358 8.92902 20.8826C8.95081 20.8862 8.97281 20.8909 8.9946 20.8943L9.1106 20.9088C9.17532 20.9167 9.23962 20.9234 9.30435 20.9306C9.36203 20.9372 9.41885 20.9447 9.47717 20.9501C9.4855 20.9509 9.49426 20.9522 9.50302 20.953C9.65298 20.9669 9.80124 20.9802 9.93433 20.9849C10.1221 20.9951 10.3101 21.0007 10.5 21.0007C10.6574 21.0007 10.8093 20.9964 10.9563 20.9894C11.0172 20.9868 11.077 20.9832 11.1375 20.9798C11.2564 20.9731 11.3803 20.9635 11.5102 20.9513C11.5425 20.9481 11.575 20.9456 11.6074 20.9422C11.6318 20.9394 11.6534 20.9381 11.679 20.9351L11.8379 20.9163C11.9731 20.9009 12.1139 20.88 12.2154 20.8599C12.2504 20.8546 12.2855 20.8454 12.3205 20.8396C12.4465 20.8174 12.5724 20.7948 12.6967 20.7681C12.698 20.7676 12.6997 20.7676 12.7012 20.7672C12.799 20.7482 12.9001 20.7251 12.9915 20.7033C13.0336 20.6935 13.0748 20.6813 13.1167 20.6704C13.1192 20.6696 13.1224 20.6691 13.125 20.6683C13.191 20.6512 13.2572 20.635 13.322 20.617L13.5223 20.5598C13.5563 20.5493 13.5843 20.5393 13.6176 20.5282C13.6189 20.5277 13.6198 20.5273 13.6212 20.5269C13.7099 20.4989 13.8 20.4705 13.8761 20.4433L14.0214 20.3978C14.1946 20.3348 14.3679 20.2675 14.5215 20.2019C14.5411 20.194 14.5605 20.184 14.5806 20.1757C14.5858 20.1733 14.5907 20.1708 14.5958 20.1686C14.7473 20.1052 14.8987 20.0379 15.0461 19.9682C15.2194 19.8864 15.3873 19.7959 15.5537 19.7053C15.7015 19.6252 15.8414 19.5416 15.9809 19.4573L16.1437 19.3566C16.2539 19.2844 16.3616 19.2139 16.4693 19.1379C16.5169 19.1071 16.5682 19.0727 16.6071 19.0428C16.7077 18.9693 16.8087 18.895 16.9076 18.8185L16.9973 18.751C17.1334 18.6436 17.2691 18.531 17.3998 18.4191L17.5237 18.3127L17.5297 18.3013C17.6299 18.2112 17.7284 18.1163 17.8307 18.0179C17.9646 17.8893 18.0977 17.7511 18.2276 17.6113C18.3562 17.4731 18.481 17.3296 18.6004 17.1867L19.0654 16.6283L19.04 16.5977C20.272 14.877 21 12.7726 21 10.5007C21 8.22881 20.272 6.12441 19.0409 4.4041L19.0663 4.37355L18.6012 3.81536C18.4822 3.67223 18.3571 3.5291 18.2276 3.38918C18.102 3.25481 17.973 3.12493 17.8251 2.97795C17.7271 2.88439 17.6299 2.79061 17.5301 2.70046L17.4002 2.58275C17.2695 2.47081 17.1339 2.35802 16.9978 2.25078L16.9081 2.18349C16.8096 2.1068 16.7102 2.03374 16.6162 1.96517C16.5695 1.93013 16.5178 1.8951 16.4697 1.86455C16.362 1.78829 16.2544 1.71801 16.1441 1.6458L15.9997 1.55117L15.9814 1.54518C15.8423 1.46059 15.7019 1.37706 15.5558 1.29781C15.3877 1.20638 15.2194 1.11537 15.0465 1.0342C14.8746 0.952807 14.6979 0.872271 14.5373 0.807116C14.3683 0.734485 14.1957 0.66698 14.0218 0.604388L13.8932 0.564654C13.7712 0.520862 13.6492 0.481982 13.5044 0.437335L13.3196 0.384356C13.2226 0.356799 13.1207 0.329242 13.0186 0.305316L12.8975 0.275836C12.8398 0.262805 12.7802 0.249133 12.7234 0.238238L12.639 0.210681H12.5965C12.5025 0.189746 12.4057 0.171802 12.31 0.155993L12.2487 0.147235C12.1135 0.121387 11.9727 0.100452 11.8625 0.088275L11.6463 0.0624266C11.6266 0.0602904 11.6074 0.0590086 11.5876 0.057086C11.5715 0.055377 11.5549 0.0540953 11.5386 0.0528136C11.3991 0.039569 11.2614 0.0286742 11.1336 0.0216246C11.0779 0.0182066 11.0219 0.0152159 10.9659 0.0124388C10.6318 -0.0044374 10.2834 -0.00230117 9.98987 0.0139342C9.89758 0.0182066 9.80573 0.0265379 9.71387 0.0335875C9.6438 0.0391417 9.57373 0.0419188 9.5043 0.0487547C9.49683 0.0498229 9.48892 0.0506773 9.48145 0.0515319C9.41714 0.0575132 9.3537 0.0658446 9.28983 0.0733214C9.2251 0.0807982 9.1608 0.0869932 9.09607 0.0953246L9.00336 0.105792C8.97964 0.10921 8.95486 0.114551 8.93115 0.118396C8.70856 0.152148 8.48874 0.194018 8.27106 0.241443L8.2623 0.243152C8.18518 0.257464 8.11298 0.274981 8.02689 0.297412C8.00061 0.302966 7.97519 0.310016 7.94891 0.316211C7.92093 0.32326 7.89294 0.329242 7.86539 0.336291C7.78528 0.356372 7.70837 0.376452 7.64279 0.396319C7.62122 0.401874 7.58362 0.411487 7.53641 0.428149L7.51547 0.433917C7.37854 0.471087 7.24631 0.512958 7.13651 0.552905C7.09442 0.566791 7.05341 0.582171 7.01132 0.596698L7.0062 0.594348L6.85602 0.650744C6.85516 0.651385 6.85431 0.651385 6.85345 0.651813L6.77206 0.653521L6.47812 0.80263C6.41681 0.828051 6.35635 0.855182 6.29568 0.881884C6.22134 0.914569 6.14551 0.944049 6.07159 0.97716L5.94598 1.03804C5.87827 1.0718 5.81012 1.10491 5.77936 1.12242C5.66785 1.1754 5.55676 1.23351 5.47324 1.28221C5.40146 1.32024 5.32605 1.36125 5.25342 1.40334L5.04449 1.52852C5.04044 1.53066 5.03659 1.53322 5.03296 1.536L4.84882 1.62914L4.87018 1.63747C4.83664 1.65883 4.80203 1.67934 4.76828 1.70134L4.68048 1.76073L4.6777 1.76351C4.55658 1.84383 4.44186 1.92436 4.35043 1.99272C4.3233 2.01067 4.29617 2.03032 4.2543 2.0613C4.1554 2.13051 4.05777 2.20357 3.96335 2.28453C3.9375 2.30419 3.91571 2.32128 3.89819 2.33559L3.68863 2.50884C3.57605 2.60112 3.46283 2.69918 3.34042 2.81645L3.20734 2.94548C3.1221 3.02175 3.04114 3.10207 2.9606 3.19094C2.89886 3.25011 2.84161 3.31121 2.78607 3.37166C2.64999 3.51735 2.51968 3.66774 2.39322 3.82262L1.93863 4.37975L1.95914 4.40453C0.7276 6.12483 0 8.22881 0 10.5007C0 12.7726 0.7276 14.8765 1.95914 16.5968V16.5968ZM9.6312 1.79491C9.91724 1.7665 10.2069 1.75069 10.5 1.75069C11.0958 1.75069 11.6777 1.81157 12.2404 1.92565C12.2504 1.928 12.2609 1.92928 12.2705 1.93184L12.373 1.96559H12.4023C14.0818 2.33965 15.5797 3.19499 16.744 4.38274C15.7724 5.36797 14.574 6.11522 13.2681 6.55272L13.2611 6.5305L13.2248 6.54183C13.2134 6.51384 13.1989 6.48671 13.1872 6.45873C13.1184 6.29509 13.0453 6.13359 12.9684 5.97338C12.9421 5.91869 12.9171 5.86315 12.8896 5.80889C12.7847 5.60082 12.674 5.39553 12.5559 5.19472C12.538 5.16417 12.5177 5.13469 12.4993 5.10457C12.397 4.93495 12.2897 4.76854 12.1782 4.60491C12.1376 4.54552 12.096 4.4872 12.0541 4.42867C11.9543 4.28874 11.851 4.15181 11.7448 4.01702C11.7036 3.96489 11.6634 3.91191 11.6213 3.86086C11.4743 3.68141 11.3224 3.5056 11.1642 3.3362C11.1488 3.31996 11.1325 3.3048 11.1169 3.28856C10.9721 3.13582 10.8224 2.98799 10.6694 2.84401C10.6169 2.79466 10.5634 2.74681 10.5096 2.69875C10.384 2.58553 10.2558 2.47573 10.1251 2.36849C10.0704 2.32384 10.0161 2.27834 9.9606 2.23455C9.78073 2.09334 9.59744 1.95598 9.40839 1.82631C9.4635 1.81948 9.51691 1.80709 9.57245 1.80153C9.5921 1.79918 9.61154 1.79662 9.6312 1.79491V1.79491ZM12.2902 19.0653C12.2737 19.0691 12.2562 19.0723 12.2395 19.0762C11.9635 19.1321 11.6835 19.1755 11.3987 19.2048C11.3942 19.2052 11.3895 19.2056 11.385 19.206C11.0941 19.2353 10.7989 19.2507 10.5 19.2507C10.2061 19.2507 9.91553 19.2349 9.62906 19.2065C9.61111 19.2048 9.59274 19.2026 9.5748 19.2005C9.51819 19.1943 9.46436 19.1821 9.40839 19.1751C9.59744 19.0456 9.78073 18.9082 9.9606 18.7668C10.0161 18.723 10.0704 18.6775 10.1251 18.6329C10.2558 18.5259 10.384 18.4161 10.5096 18.3026C10.563 18.2546 10.6169 18.2069 10.6694 18.1574C10.823 18.0134 10.9725 17.8656 11.1169 17.7128C11.1321 17.6968 11.1488 17.6814 11.1642 17.6652C11.3224 17.496 11.4739 17.32 11.6213 17.1407C11.6634 17.0895 11.7036 17.0365 11.7448 16.9846C11.851 16.8498 11.9543 16.7124 12.0541 16.5727C12.096 16.5142 12.1376 16.4554 12.1782 16.3965C12.2897 16.2328 12.397 16.0666 12.4993 15.8968C12.5177 15.8667 12.538 15.837 12.5559 15.8067C12.6745 15.6059 12.7847 15.4012 12.8896 15.1925C12.9171 15.1382 12.9421 15.0827 12.9684 15.028C13.0453 14.8682 13.1184 14.7069 13.1872 14.5429C13.1989 14.5149 13.213 14.4877 13.2248 14.4598L13.2611 14.4711L13.2681 14.4487C14.574 14.8862 15.7724 15.6334 16.744 16.6186C15.5541 17.8337 14.0158 18.7047 12.2902 19.0653V19.0653ZM11.4769 14.0938C11.3825 14.3021 11.2782 14.5057 11.168 14.705C11.1466 14.7441 11.1257 14.7838 11.1037 14.8223C10.9879 15.0244 10.864 15.2218 10.7324 15.4138C10.7057 15.4533 10.6777 15.4918 10.6502 15.5302C10.5113 15.7268 10.3669 15.9192 10.2127 16.1034C10.2086 16.1077 10.2048 16.1121 10.2007 16.1168C10.0475 16.2988 9.88583 16.4729 9.71857 16.6419C9.68759 16.6733 9.65704 16.7054 9.62543 16.7363C9.45837 16.9008 9.2847 17.0585 9.10483 17.2093C9.07108 17.2377 9.03604 17.2653 9.00208 17.2928C8.81387 17.446 8.6214 17.5938 8.42102 17.7312C8.42017 17.7318 8.41931 17.7327 8.41846 17.7331C8.21765 17.8705 8.00894 17.9974 7.79724 18.1176C7.75772 18.1398 7.71884 18.1627 7.67953 18.1845C7.47211 18.2984 7.25998 18.4037 7.04337 18.5004C7.03055 18.506 7.01752 18.5113 7.00491 18.5171C6.79001 18.4229 6.57874 18.3227 6.37344 18.2125C6.34909 18.1994 6.32452 18.1862 6.30038 18.1732C5.54352 17.757 4.85629 17.2313 4.25601 16.6186C6.1312 14.7125 8.79849 13.7527 11.4953 14.0575C11.4893 14.0695 11.4827 14.0817 11.4769 14.0938ZM5.59991 3.25524C5.60611 3.25139 5.6123 3.2469 5.61829 3.24263C6.05365 2.94911 6.51828 2.69704 7.00449 2.48406C7.01794 2.49004 7.03247 2.49538 7.04593 2.50157C7.26126 2.5977 7.47211 2.70238 7.67804 2.81517C7.71884 2.83739 7.75858 2.86067 7.79938 2.88375C8.01065 3.00423 8.21851 3.13027 8.41888 3.2672C8.42017 3.26805 8.42145 3.26934 8.42316 3.27019C8.62311 3.40712 8.81515 3.55452 9.0025 3.70726C9.03711 3.73525 9.0715 3.7628 9.10568 3.79122C9.28555 3.94225 9.45923 4.09969 9.62628 4.26418C9.6579 4.29473 9.68802 4.32677 9.71899 4.35817C9.88669 4.52757 10.049 4.7021 10.202 4.88411C10.2056 4.88838 10.2095 4.89244 10.2135 4.89672C10.368 5.0815 10.5122 5.27397 10.6515 5.47029C10.6786 5.50875 10.7066 5.54741 10.7333 5.58629C10.8644 5.77834 10.9888 5.97573 11.1046 6.17824C11.127 6.21712 11.1475 6.25664 11.1689 6.29552C11.2793 6.49547 11.3833 6.69841 11.4778 6.90669C11.4835 6.91887 11.4897 6.93062 11.4953 6.94344C8.79764 7.2502 6.1312 6.28804 4.25601 4.38188C4.6651 3.96446 5.11392 3.58507 5.59991 3.25524ZM10.5 8.75069C11.0155 8.75069 11.5324 8.70839 12.0462 8.63256C12.1795 9.24416 12.25 9.86943 12.25 10.5007C12.25 11.1319 12.1795 11.7572 12.0462 12.3688C11.5324 12.2932 11.0155 12.2507 10.5 12.2507C7.73465 12.2507 5.1152 13.3301 3.15735 15.2431C2.2706 13.8751 1.75 12.249 1.75 10.5007C1.75 8.7524 2.2706 7.1263 3.15735 5.75826C5.1152 7.67146 7.73465 8.75069 10.5 8.75069ZM17.8386 15.2497C16.6923 14.1333 15.3029 13.2818 13.7896 12.7805L13.8045 12.7333L13.759 12.7228C13.916 11.9952 14 11.2516 14 10.5007C14 9.75002 13.916 9.00618 13.759 8.27815L13.8045 8.26769L13.7896 8.22048C15.3029 7.7191 16.6923 6.86781 17.8386 5.75121C18.7277 7.12096 19.25 8.74983 19.25 10.5007C19.25 12.2515 18.7277 13.8804 17.8386 15.2497Z" fill="#333333"/>
</g>
<defs>
<clipPath id="clip0">
<rect width="21" height="21" fill="white"/>
</clipPath>
</defs>
</svg>
