<svg width="85" height="85" viewBox="0 0 85 85" fill="none" xmlns="http://www.w3.org/2000/svg">
<path d="M1 5C1 2.79086 2.79086 1 5 1H80C82.2091 1 84 2.79086 84 5V62.2269C84 65.589 81.6097 68.4763 78.3066 69.1039L5.74663 82.8903C3.28224 83.3585 1 81.469 1 78.9605V5Z" fill="#EDF6FF" stroke="#0779E4" stroke-width="2"/>
<g clip-path="url(#clip0)">
<path d="M20.2295 21.8809C20.123 18.8213 22.5068 16 25.7289 16H58.7458C61.9679 16 64.3517 18.8213 64.2451 21.8809C64.1428 24.8199 64.2757 28.627 65.2338 31.7313C66.195 34.8451 67.8159 36.8133 70.4706 37.0662V39.9338C67.8159 40.1867 66.195 42.1549 65.2338 45.2687C64.2757 48.373 64.1428 52.1801 64.2451 55.1192C64.3517 58.1787 61.9679 61 58.7458 61H25.7289C22.5068 61 20.123 58.1787 20.2296 55.1192C20.3319 52.1801 20.199 48.373 19.2407 45.2687C18.2796 42.1549 16.6548 40.1867 14 39.9338V37.0662C16.6547 36.8133 18.2796 34.8451 19.2407 31.7313C20.199 28.627 20.3319 24.8199 20.2295 21.8809Z" fill="url(#paint0_linear)"/>
<g filter="url(#filter0_d)">
<path d="M43.4599 50.4621C48.6765 50.4621 51.82 47.9079 51.82 43.695C51.82 40.5105 49.577 38.205 46.2466 37.8401V37.7074C48.6935 37.3093 50.6136 35.0371 50.6136 32.4994C50.6136 28.8837 47.759 26.5283 43.409 26.5283H33.6215V50.4621H43.4599ZM37.4277 29.5636H42.4914C45.2441 29.5636 46.8073 30.791 46.8073 33.0135C46.8073 35.3854 44.9893 36.7122 41.6928 36.7122H37.4277V29.5636ZM37.4277 47.427V39.5485H42.4573C46.0597 39.5485 47.9288 40.8754 47.9288 43.4629C47.9288 46.0503 46.1107 47.427 42.6783 47.427H37.4277Z" fill="url(#paint1_linear)"/>
<path d="M43.4599 50.4621C48.6765 50.4621 51.82 47.9079 51.82 43.695C51.82 40.5105 49.577 38.205 46.2466 37.8401V37.7074C48.6935 37.3093 50.6136 35.0371 50.6136 32.4994C50.6136 28.8837 47.759 26.5283 43.409 26.5283H33.6215V50.4621H43.4599ZM37.4277 29.5636H42.4914C45.2441 29.5636 46.8073 30.791 46.8073 33.0135C46.8073 35.3854 44.9893 36.7122 41.6928 36.7122H37.4277V29.5636ZM37.4277 47.427V39.5485H42.4573C46.0597 39.5485 47.9288 40.8754 47.9288 43.4629C47.9288 46.0503 46.1107 47.427 42.6783 47.427H37.4277Z" stroke="white"/>
</g>
</g>
<defs>
<filter id="filter0_d" x="17.1215" y="14.0283" width="51.1985" height="56.9338" filterUnits="userSpaceOnUse" color-interpolation-filters="sRGB">
<feFlood flood-opacity="0" result="BackgroundImageFix"/>
<feColorMatrix in="SourceAlpha" type="matrix" values="0 0 0 0 0 0 0 0 0 0 0 0 0 0 0 0 0 0 127 0" result="hardAlpha"/>
<feOffset dy="4"/>
<feGaussianBlur stdDeviation="8"/>
<feColorMatrix type="matrix" values="0 0 0 0 0 0 0 0 0 0 0 0 0 0 0 0 0 0 0.15 0"/>
<feBlend mode="normal" in2="BackgroundImageFix" result="effect1_dropShadow"/>
<feBlend mode="normal" in="SourceGraphic" in2="effect1_dropShadow" result="shape"/>
</filter>
<linearGradient id="paint0_linear" x1="22.3911" y1="17.191" x2="71.7368" y2="56.3616" gradientUnits="userSpaceOnUse">
<stop stop-color="#9013FE"/>
<stop offset="1" stop-color="#6610F2"/>
</linearGradient>
<linearGradient id="paint1_linear" x1="35.3428" y1="28.1037" x2="46.3729" y2="46.7579" gradientUnits="userSpaceOnUse">
<stop stop-color="white"/>
<stop offset="1" stop-color="#F1E5FC"/>
</linearGradient>
<clipPath id="clip0">
<rect width="56.4706" height="45" fill="white" transform="translate(14 16)"/>
</clipPath>
</defs>
</svg>
