<svg width="86" height="85" viewBox="0 0 86 85" fill="none" xmlns="http://www.w3.org/2000/svg">
<path d="M1 5C1 2.79086 2.79086 1 5 1H80.2125C82.4216 1 84.2125 2.79086 84.2125 5V62.2238C84.2125 65.5871 81.8205 68.4751 78.516 69.1014L5.74484 82.8934L5.93105 83.8759L5.74483 82.8934C3.28096 83.3604 1 81.4711 1 78.9634V5Z" fill="#EDF6FF" stroke="#0779E4" stroke-width="2"/>
<g clip-path="url(#clip0)">
<path d="M61.1525 26.4157L57.6819 64.7371L42.0817 69L26.5244 64.7431L23.0575 26.4157H61.1525Z" fill="#264DE4"/>
<path d="M54.7108 62.2969L57.6766 29.5496H42.105V65.7416L54.7108 62.2969Z" fill="#2965F1"/>
<path d="M31.0052 43.7646L31.4327 48.4653H42.105V43.7646H31.0052Z" fill="#EBEBEB"/>
<path d="M42.105 34.2503H42.0885H30.1464L30.5799 38.9511H42.105V34.2503Z" fill="#EBEBEB"/>
<path d="M42.105 60.8636V55.9729L42.0841 55.9784L36.7728 54.5648L36.4332 50.8157H33.8523H31.6458L32.314 58.1965L42.0831 60.8696L42.105 60.8636Z" fill="#EBEBEB"/>
<path d="M32.0229 16H37.7991V18.3809H34.4384V20.7617H37.7991V23.1426H32.0229V16Z" fill="black"/>
<path d="M38.9543 16H44.7305V18.0703H41.3698V18.4844H44.7305V23.2461H38.9543V21.0723H42.315V20.6582H38.9543V16Z" fill="black"/>
<path d="M45.8857 16H51.6619V18.0703H48.3012V18.4844H51.6619V23.2461H45.8857V21.0723H49.2464V20.6582H45.8857V16Z" fill="black"/>
<path d="M47.9611 48.4653L47.4075 54.5617L42.0885 55.9768V60.8673L51.8654 58.1965L51.9371 57.4023L53.0578 45.0269L53.1742 43.7646L54.0352 34.2503H42.0885V38.9511H48.8086L48.3747 43.7646H42.0885V48.4653H47.9611Z" fill="white"/>
</g>
<defs>
<clipPath id="clip0">
<rect width="38.095" height="53" fill="white" transform="translate(23.0575 16)"/>
</clipPath>
</defs>
</svg>
