<svg width="25" height="25" viewBox="0 0 25 25" fill="none" xmlns="http://www.w3.org/2000/svg">
<circle cx="12.5" cy="12.5" r="12.5" fill="#FFF6DE"/>
<g clip-path="url(#clip0)">
<path d="M19.8466 12.1141L16.3778 8.43908C16.1646 8.21297 15.8087 8.20266 15.5826 8.41603C15.3568 8.62922 15.3464 8.98527 15.5597 9.21121L18.6642 12.5L15.5597 15.7891C15.3464 16.0151 15.3568 16.3709 15.5826 16.5843C15.6914 16.6869 15.8303 16.7377 15.9687 16.7377C16.1181 16.7377 16.2674 16.6784 16.3778 16.5616L19.8466 12.8864C20.0511 12.6695 20.0511 12.3308 19.8466 12.1141Z" fill="#FCBF1E"/>
<path d="M9.44042 15.789L6.33617 12.5L9.44042 9.21108C9.65362 8.98514 9.6433 8.62906 9.41737 8.4159C9.1916 8.2027 8.83535 8.21301 8.62218 8.43895L5.15341 12.114C4.94886 12.3307 4.94886 12.6695 5.15341 12.8863L8.62236 16.5615C8.73299 16.6787 8.88205 16.7378 9.03149 16.7378C9.16986 16.7378 9.30882 16.6867 9.41737 16.5842C9.64351 16.371 9.65362 16.0149 9.44042 15.789Z" fill="#FCBF1E"/>
<path d="M13.41 6.54384C13.1031 6.49735 12.8158 6.70808 12.769 7.01503L11.1189 17.8151C11.0721 18.1222 11.283 18.4093 11.5901 18.4562C11.619 18.4605 11.6475 18.4626 11.6758 18.4626C11.949 18.4626 12.1886 18.2632 12.2312 17.985L13.8812 7.18492C13.9281 6.87777 13.7172 6.59072 13.41 6.54384Z" fill="#FCBF1E"/>
</g>
<defs>
<clipPath id="clip0">
<rect width="15" height="15" fill="white" transform="translate(5 5)"/>
</clipPath>
</defs>
</svg>
