<svg width="85" height="85" viewBox="0 0 85 85" fill="none" xmlns="http://www.w3.org/2000/svg">
<path d="M1 5C1 2.79086 2.79086 1 5 1H80C82.2091 1 84 2.79086 84 5V62.2269C84 65.589 81.6097 68.4763 78.3066 69.1039L5.74663 82.8903C3.28224 83.3585 1 81.469 1 78.9605V5Z" fill="#EDF6FF" stroke="#0779E4" stroke-width="2"/>
<g clip-path="url(#clip0)">
<path d="M25.9395 58.5235C25.1693 58.5235 24.9453 58.0751 24.9453 57.4031C24.9453 57.1792 24.9734 56.9265 25.0081 56.6604C25.1768 55.4984 25.5887 54.8335 26.5829 54.8335C27.2553 54.8335 27.5831 55.1343 27.5831 55.6804V55.9467H28.2502C28.2576 55.9467 28.2576 55.7016 28.2576 55.6458C28.2576 54.8478 27.7743 54.0908 26.5839 54.0908C24.9663 54.0908 24.3012 54.9696 24.0561 56.6922C24.021 56.9234 24 57.1392 24 57.3695C24 58.3848 24.3995 59.3084 25.8277 59.3084C26.9129 59.3084 27.5575 58.7793 27.9354 58.1281L27.2981 57.6988C26.8851 58.3502 26.4367 58.5235 25.9395 58.5235ZM30.3161 55.3165C29.0204 55.3165 28.4607 55.9813 28.2717 57.3045C28.2495 57.4577 28.2376 57.6122 28.2361 57.7669C28.2361 58.6209 28.6353 59.3006 29.7414 59.3006C31.037 59.3006 31.6043 58.6072 31.7934 57.3045C31.8144 57.1367 31.8284 56.9826 31.8284 56.8287C31.8287 55.9606 31.4158 55.3165 30.3161 55.3165ZM30.8553 57.305C30.7151 58.2645 30.4144 58.5586 29.8468 58.5586C29.3919 58.5586 29.168 58.3695 29.168 57.8023C29.168 57.6621 29.1822 57.4943 29.21 57.305C29.3502 56.3528 29.6302 56.0588 30.2043 56.0588C30.6666 56.0588 30.8973 56.2478 30.8973 56.8219C30.8973 56.9619 30.8831 57.1231 30.8553 57.305ZM35.0853 54.1604L34.8685 55.4459C34.8546 55.5576 34.8617 55.5205 34.904 55.6255C34.701 55.4716 34.3366 55.3698 34.0915 55.3698C32.929 55.3698 32.2781 55.8959 32.0682 57.3664C32.0437 57.5216 32.032 57.6786 32.0331 57.8357C32.0331 58.9075 32.6632 59.3069 33.5102 59.3069C33.8678 59.3069 34.2177 59.3143 34.4905 59.0836L34.5602 59.5192H35.2326L36.0168 54.1604H35.0853ZM34.4202 58.3552C34.1054 58.5438 33.7975 58.5864 33.6085 58.5864C33.0973 58.5864 32.9573 58.3202 32.9573 57.8933C32.9573 57.7321 32.9783 57.5436 33.0066 57.3399C33.1673 56.2267 33.5246 56.0303 33.9868 56.0303C34.2876 56.0303 34.5185 56.0796 34.736 56.1989L34.4202 58.3552ZM38.0616 55.3165C36.7799 55.3165 36.1782 55.9253 35.9749 57.3045C35.9536 57.4728 35.9395 57.634 35.9395 57.7879C35.9395 58.7333 36.4229 59.3006 37.4868 59.3006C38.3131 59.3006 38.9298 58.9572 39.2587 58.327L38.5514 58.0398C38.3486 58.3477 38.0755 58.5579 37.5923 58.5579C37.0743 58.5579 36.8641 58.4184 36.8641 57.9562C36.8641 57.865 36.8712 57.7326 36.8853 57.7326H39.4126C39.4482 57.3753 39.4896 57.1228 39.4896 56.9134C39.4896 56.2136 39.2238 55.3163 38.0616 55.3163V55.3165ZM38.5446 57.0184H37.0041C37.1585 56.6611 37.4171 56.1082 37.9494 56.1082C38.3624 56.1082 38.5657 56.3496 38.5657 56.7627C38.5653 56.8327 38.5589 57.0184 38.5446 57.0184ZM42.1842 55.2321L42.2682 54.5177H40.2933L40.2097 55.2321H40.7277L40.1679 58.8046H39.6492L39.5657 59.5192H41.5401L41.6245 58.8046H41.106L41.6659 55.2321H42.1842ZM46.1967 56.3039L46.4491 55.5894H45.7699L45.2801 55.6905C45.0069 55.5159 44.6357 55.3847 44.2859 55.3847C43.2842 55.3847 42.4304 55.8684 42.4304 56.968C42.4304 57.2764 42.5423 57.5254 42.675 57.6936C42.4655 57.8054 42.2833 57.9926 42.2833 58.2451C42.2833 58.357 42.325 58.4716 42.4094 58.5764C41.9889 58.8289 41.7306 59.2473 41.7306 59.737C41.7306 60.6828 42.7177 60.8845 43.4738 60.8845C44.426 60.8845 45.5606 60.667 45.5606 59.4555C45.5606 59.0426 45.3016 58.7199 44.5524 58.5799L43.2011 58.3274C43.0471 58.2991 43.012 58.2502 43.012 58.1801C43.012 58.0751 43.0757 58.0194 43.1802 58.0194L43.2714 58.0333C43.4534 58.0752 43.6636 58.0965 43.8804 58.0965C44.854 58.0965 45.7221 57.6762 45.7221 56.5839C45.7221 56.4297 45.6942 56.3253 45.6242 56.157C45.7431 56.2133 45.8975 56.3043 45.9599 56.3043H46.1967V56.3039ZM44.2716 59.2023C44.5374 59.2516 44.6283 59.3494 44.6283 59.5245C44.6283 60.0918 44.0191 60.1618 43.5782 60.1618C42.9059 60.1618 42.654 60.0011 42.654 59.6435C42.654 59.3282 42.7447 59.1816 42.9552 58.9572L44.2716 59.2023ZM43.984 57.3682C43.5779 57.3682 43.3538 57.2214 43.3538 56.8709C43.3538 56.3528 43.655 56.0517 44.1801 56.0517C44.6003 56.0517 44.8035 56.2267 44.8035 56.5694C44.8035 57.0877 44.5091 57.3682 43.984 57.3682ZM48.6843 55.3165C48.2921 55.3165 47.9423 55.5089 47.5079 55.8517L47.445 55.5894H46.6745L46.1355 59.519H47.0667L47.473 56.539C47.7462 56.3711 48.0821 56.1271 48.3692 56.1271C48.7191 56.1271 48.8455 56.296 48.8455 56.6179C48.8455 56.695 48.8381 56.9234 48.824 57.0073L48.4814 59.519H49.4128L49.7554 56.9869C49.7696 56.8685 49.7836 56.6733 49.7836 56.5615C49.784 55.8955 49.4684 55.3165 48.6843 55.3165ZM51.5527 58.5346L51.5598 58.4384L51.9656 55.5894H50.4181L50.3205 56.3039H50.9993C50.9432 56.3039 50.9083 56.3665 50.9015 56.4229L50.6213 58.3203C50.6074 58.4116 50.6006 58.6017 50.6006 58.6782C50.6006 59.1683 50.8664 59.5192 51.4122 59.5192H51.8885L51.9936 58.8046H51.6927C51.5873 58.8046 51.5527 58.6185 51.5527 58.5346ZM52.1546 54.1604H51.2444C51.1883 54.1604 51.1883 53.9542 51.1815 54.0242L51.0551 55.031C51.0478 55.0943 51.0478 55.2323 51.1039 55.2323H52.0146C52.0707 55.2323 52.0707 54.9875 52.0775 54.9238L52.2039 54.1468C52.211 54.0768 52.211 54.1604 52.1546 54.1604ZM54.0537 58.5585C53.823 58.5585 53.7108 58.4603 53.7108 58.2506L53.7179 58.2362L54.012 56.3039H55.0762L55.3981 55.5894H54.1098L54.3267 54.0171L53.3468 54.3305L53.1714 55.5894H52.6044L52.5066 56.3039H53.1646C53.1017 56.6611 53.0385 56.4294 53.0317 56.4997L52.7795 58.1941C52.7656 58.2713 52.7656 58.3273 52.7656 58.397C52.7656 59.0623 53.2557 59.3112 53.8444 59.3112C54.3903 59.3112 54.8315 59.1518 55.1749 58.8642L54.7405 58.3299C54.5229 58.4627 54.3761 58.5585 54.0537 58.5585ZM57.4708 55.3165C56.1895 55.3165 55.5874 55.9253 55.3842 57.3045C55.3632 57.4728 55.3491 57.634 55.3491 57.7879C55.3491 58.7333 55.8322 59.3006 56.8964 59.3006C57.7227 59.3006 58.3394 58.9572 58.668 58.327L57.961 58.0398C57.7582 58.3477 57.4848 58.5579 57.0014 58.5579C56.4837 58.5579 56.2733 58.4184 56.2733 57.9562C56.2733 57.865 56.2808 57.7326 56.2949 57.7326H58.8224C58.8573 57.3753 58.8994 57.1228 58.8994 56.9134C58.8994 56.2136 58.6334 55.3163 57.4708 55.3163V55.3165ZM57.9542 57.0184H56.4137C56.5676 56.6611 56.8264 56.1082 57.359 56.1082C57.772 56.1082 57.9753 56.3496 57.9753 56.7627C57.9749 56.8327 57.9681 57.0184 57.9542 57.0184ZM61.4763 55.3163C61.1402 55.3163 60.8251 55.5091 60.5098 55.8095L60.4539 55.5894H59.6839L59.1446 59.519H60.083L60.4959 56.476C60.7412 56.3293 61.0212 56.2039 61.2873 56.2039C61.4556 56.2039 61.6163 56.1772 61.7703 56.198L61.89 55.3862C61.7492 55.3582 61.6092 55.3165 61.4763 55.3165V55.3163ZM37.6966 51.3457C35.5772 50.4296 33.5939 48.1011 33.5891 45.7186C33.5834 43.1211 35.2295 40.9158 37.2769 39.4665C37.0308 40.3964 36.8965 41.247 37.5063 42.0788C38.0732 42.8522 39.066 43.228 40.0035 43.024C42.194 42.5445 42.2945 40.1364 40.9959 38.7334C39.7119 37.3441 38.4698 35.7747 38.9586 33.7599C39.2032 32.7499 39.8234 31.8038 40.609 31.1276C40.0051 32.7145 41.7211 34.2796 42.8518 35.0591C44.813 36.4116 46.9649 37.4337 48.7682 39.0192C50.6651 40.6855 52.0658 42.9385 51.783 45.5515C51.4765 48.3838 49.2259 50.3536 46.7014 51.3481C52.0359 50.1707 57.5479 46.0305 57.6608 40.1143C57.7544 35.2471 54.4155 31.5013 50.2794 29.3568L50.0633 29.2389C50.1768 29.5143 50.214 29.7486 50.2097 29.9583C50.2467 29.8037 50.2718 29.6447 50.2789 29.4807C50.2779 29.6755 50.2525 29.8694 50.2032 30.0579L50.2097 29.9583C50.1483 30.2167 50.0448 30.4633 49.9034 30.6881L49.9641 30.6229C49.139 31.9915 46.9051 32.2887 45.8016 30.8715C44.0275 28.5919 45.8387 26.1341 46.0921 23.7201C46.4093 20.6947 44.512 17.7576 42.1595 16C43.4552 18.0959 41.7482 20.8689 40.3825 22.4191C39.0583 23.9218 37.4478 25.1765 35.986 26.5419C34.4156 28.0083 32.9059 29.5531 31.6151 31.2743C29.0336 34.7193 27.4532 39.0521 28.6146 43.3499C29.7753 47.6448 33.4956 50.3788 37.6968 51.3456L37.6966 51.3457Z" fill="#EE4323"/>
</g>
<defs>
<clipPath id="clip0">
<rect width="37.89" height="45" fill="white" transform="translate(24 16)"/>
</clipPath>
</defs>
</svg>
