<svg width="25" height="25" viewBox="0 0 25 25" fill="none" xmlns="http://www.w3.org/2000/svg">
<circle cx="12.5" cy="12.5" r="12.5" fill="#FFF6DE"/>
<path d="M18.6816 7.36157H6.31836C5.59142 7.36157 5 7.95299 5 8.67993V16.32C5 17.047 5.59142 17.6384 6.31836 17.6384H18.6816C19.4086 17.6384 20 17.047 20 16.32V8.67993C20 7.95299 19.4086 7.36157 18.6816 7.36157ZM18.5096 8.24048L18.3336 8.38699L13.0231 12.8091C12.72 13.0615 12.28 13.0615 11.9769 12.8091L6.66638 8.38699L6.49042 8.24048H18.5096ZM5.87891 8.87499L10.2058 12.478L5.87891 15.3577V8.87499ZM18.6816 16.7595H6.31836C6.10602 16.7595 5.92842 16.6081 5.88772 16.4076L10.9105 13.0648L11.4146 13.4845C11.729 13.7464 12.1145 13.8773 12.5 13.8773C12.8855 13.8773 13.271 13.7464 13.5855 13.4845L14.0895 13.0648L19.1123 16.4076C19.0716 16.6081 18.894 16.7595 18.6816 16.7595ZM19.1211 15.3577L14.7942 12.478L19.1211 8.87499V15.3577Z" fill="#FCBF1E"/>
</svg>
