<svg width="25" height="25" viewBox="0 0 25 25" fill="none" xmlns="http://www.w3.org/2000/svg">
<circle cx="12.5" cy="12.5" r="12.5" fill="#FFF6DE"/>
<g clip-path="url(#clip0)">
<path d="M12.5005 5.00159C8.35621 4.96353 4.89071 8.49275 5.00264 12.6382C5.0237 16.1824 7.76709 19.3688 11.2705 19.8952C11.4104 19.8952 11.5343 19.7945 11.5588 19.6519C11.5863 19.4925 11.4793 19.341 11.3198 19.3135C11.0885 19.2737 10.8574 19.2214 10.6311 19.1579L9.82642 16.6812L11.1943 14.8222H13.8067L15.1746 16.6812L14.3682 19.1632C14.1433 19.2253 13.9142 19.2759 13.6812 19.3135C13.5217 19.341 13.4147 19.4925 13.4422 19.6519C13.4697 19.8114 13.6214 19.9183 13.7806 19.8909C17.3191 19.3162 20.0393 16.0909 19.9996 12.5007C20.035 8.40736 16.5919 4.96462 12.5005 5.00159ZM15.6478 16.3357L14.2798 14.4767L15.0866 11.9938L17.3033 11.2498L19.4098 12.7802C19.371 14.0676 18.9461 15.2951 18.2462 16.3357H15.6478V16.3357ZM9.35319 16.3357H6.75702C6.05542 15.2882 5.63054 14.0556 5.58821 12.7823L7.69767 11.2498L9.9143 11.9937L10.721 14.4767L9.35319 16.3357ZM5.60002 12.0496C5.66742 10.8735 6.04683 9.76792 6.65453 8.81501L7.30335 10.8121L5.60002 12.0496ZM10.4917 11.8749L12.5005 10.4154L14.5092 11.8749L13.742 14.2363H11.259L10.4917 11.8749ZM17.6976 10.8121L18.3464 8.81504C18.9541 9.76801 19.3336 10.8736 19.401 12.0496L17.6976 10.8121ZM17.923 8.22208L17.1202 10.6932L14.9036 11.4372L12.7934 9.90405V7.54745L14.9041 6.01409C16.0934 6.46104 17.1389 7.23518 17.923 8.22208ZM14.2092 5.79477L12.5005 7.0361L10.7918 5.79479C11.341 5.65395 11.9139 5.58133 12.5005 5.58746C13.087 5.58127 13.6599 5.65389 14.2092 5.79477ZM10.0969 6.01411L12.2075 7.54745V9.90405L10.0974 11.4372L7.88075 10.6932L7.0779 8.22202C7.86194 7.23515 8.90746 6.46107 10.0969 6.01411ZM7.19443 16.9216H9.28848L9.94096 18.93C8.86706 18.5087 7.92525 17.803 7.19443 16.9216ZM15.06 18.93L15.7124 16.9216H17.8067C17.0743 17.7998 16.1308 18.5014 15.06 18.93Z" fill="#FCBF1E"/>
<path d="M12.5005 19.9993C12.6622 19.9993 12.7934 19.8682 12.7934 19.7064C12.7934 19.5446 12.6622 19.4135 12.5005 19.4135C12.3387 19.4135 12.2075 19.5446 12.2075 19.7064C12.2075 19.8682 12.3387 19.9993 12.5005 19.9993Z" fill="#FCBF1E"/>
</g>
<defs>
<clipPath id="clip0">
<rect width="15" height="15" fill="white" transform="translate(5 5)"/>
</clipPath>
</defs>
</svg>
