<svg width="25" height="25" viewBox="0 0 25 25" fill="none" xmlns="http://www.w3.org/2000/svg">
<circle cx="12.5" cy="12.5" r="12.5" fill="#FFF6DE"/>
<g clip-path="url(#clip0)">
<path d="M18.7682 14.9113L17.6937 15.2695C17.5819 14.9343 17.3203 14.6704 16.9861 14.5557C16.8892 13.9174 16.3224 13.4576 15.6778 13.4946C15.2606 12.8248 14.5068 12.4412 13.7199 12.498C13.6346 12.1646 13.3843 11.8983 13.0569 11.7925C13.2906 11.0321 13.708 10.3408 14.272 9.77973C14.3022 9.81424 14.3304 9.85054 14.3623 9.88332C14.8656 10.397 15.5533 10.6883 16.2725 10.6924C16.3231 10.6924 16.3741 10.691 16.4247 10.6878C17.0728 10.6584 17.6746 10.3436 18.0684 9.82804C19.1568 8.39639 19.9575 5.51931 19.991 5.3975C20.0102 5.32777 19.9983 5.25312 19.9584 5.19283C19.9184 5.13253 19.8542 5.09254 19.7825 5.08317C19.6352 5.06363 16.1526 4.62649 14.4116 6.09684C14.2886 6.20064 14.1771 6.31724 14.0789 6.44471C13.3934 6.25581 12.6784 6.19789 11.9715 6.27397C11.8977 6.28247 11.8315 6.32337 11.7908 6.38553C11.7502 6.4477 11.7392 6.52472 11.761 6.59577C11.7778 6.64997 12.175 7.93013 12.7215 8.57123C12.9637 8.84595 13.3146 8.99993 13.6808 8.99214C13.7167 8.99214 13.753 8.98939 13.7893 8.98666C13.841 9.11615 13.9022 9.24163 13.9725 9.3621C13.2924 10.0221 12.8005 10.8515 12.5475 11.7649C12.3109 11.815 12.1003 11.9485 11.9539 12.1411C11.266 11.8372 10.4608 12.0086 9.95622 12.5662C9.80906 12.5174 9.65507 12.4925 9.50003 12.4924C8.76884 12.4936 8.14494 13.0215 8.02262 13.7424H7.55955C7.35105 13.4301 7.00045 13.2426 6.62501 13.2424H6.125C5.50397 13.243 5.00067 13.7463 5 14.3674V18.8674C5.00067 19.4884 5.50397 19.9917 6.125 19.9924H6.62501C6.87954 19.9913 7.12599 19.9031 7.32339 19.7424H13.825C14.1918 19.7424 14.5516 19.6415 14.8649 19.4508L19.5509 16.5983C19.9572 16.3505 20.1128 15.8372 19.9125 15.4055C19.7122 14.9738 19.2198 14.7611 18.7682 14.9113ZM14.0883 7.84001C14.1034 7.31589 14.3377 6.82215 14.7341 6.47893C15.6913 5.67084 17.3175 5.51152 18.4511 5.51152C18.8566 5.51152 19.1991 5.53191 19.4253 5.55022C19.1942 6.31464 18.5085 8.4229 17.6704 9.52558C17.364 9.92437 16.8968 10.1672 16.3943 10.1888C15.7683 10.2219 15.1584 9.98355 14.7207 9.53475C14.6889 9.50205 14.6604 9.46622 14.6307 9.43142C15.1545 8.9564 15.7354 8.54841 16.36 8.21686C16.484 8.15615 16.5354 8.00639 16.4747 7.88237C16.414 7.75836 16.2642 7.70703 16.1402 7.76773C15.4926 8.10406 14.8896 8.52017 14.3453 9.00629C14.1594 8.64661 14.0708 8.24454 14.0883 7.84001ZM13.5889 7.81546C13.5792 8.04201 13.5976 8.26889 13.6435 8.49096C13.4371 8.48941 13.2408 8.40108 13.1028 8.24759C12.7732 7.79018 12.5163 7.28463 12.341 6.74882C12.836 6.72005 13.3325 6.76648 13.8136 6.88651C13.6797 7.17887 13.6034 7.49425 13.5889 7.81546ZM7.25 18.8674C7.24959 19.2124 6.97001 19.492 6.62501 19.4924H6.125C5.78 19.492 5.50039 19.2124 5.50001 18.8674V14.3674C5.50042 14.0224 5.78 13.7428 6.125 13.7424H6.62501C6.97001 13.7428 7.24962 14.0224 7.25 14.3674V18.8674ZM9.50001 12.9923C9.6479 12.9933 9.79371 13.0274 9.92663 13.0922C10.0357 13.1439 10.1661 13.1105 10.2368 13.0127C10.6215 12.475 11.3595 12.332 11.9172 12.6869C11.9806 12.7271 12.0587 12.7367 12.1299 12.713C12.2011 12.6894 12.2579 12.635 12.2846 12.5648C12.355 12.3782 12.5307 12.2521 12.7301 12.2453C12.7368 12.2459 12.7436 12.2473 12.7502 12.2473C12.7565 12.2473 12.7621 12.2446 12.7683 12.2442C13.0322 12.2522 13.2439 12.4649 13.2504 12.7289C13.2495 12.7358 13.2469 12.7595 13.2464 12.7665C13.242 12.844 13.2739 12.9191 13.3326 12.9698C13.3914 13.0206 13.4704 13.0412 13.5464 13.0255C13.6545 13.0034 13.7646 12.9923 13.875 12.9923C14.4854 12.9915 15.0444 13.334 15.3208 13.8783C15.3722 13.9789 15.4847 14.0324 15.5952 14.0088C15.8143 13.9639 16.042 14.0186 16.2168 14.1582C16.3915 14.2978 16.4952 14.5078 16.4999 14.7314C16.4993 14.7396 16.4988 14.7481 16.4988 14.7548C16.4988 14.8792 16.5904 14.9847 16.7135 15.0022C16.9488 15.037 17.1442 15.2019 17.2178 15.4281L14.1406 16.4539C14.0641 16.4794 13.9841 16.4924 13.9034 16.4924H13.7598C13.8786 16.1668 13.8443 15.805 13.6664 15.5075L13.6442 15.4707C13.3721 15.02 12.8846 14.7438 12.358 14.7424H11.0504C10.5891 14.7418 10.1417 14.5848 9.78114 14.2972C9.41953 14.0095 8.98628 13.8259 8.52808 13.7663C8.63314 13.3139 9.03568 12.9934 9.50001 12.9923ZM19.4921 15.882C19.4694 16.0027 19.3963 16.1079 19.291 16.1712L14.6049 19.0238C14.3699 19.1668 14.1001 19.2424 13.825 19.2424H7.6809C7.72537 19.1223 7.74875 18.9955 7.75001 18.8674V14.3674C7.7482 14.3255 7.74398 14.2838 7.73739 14.2424H8.1996C8.66088 14.243 9.10831 14.3999 9.46889 14.6876C9.91813 15.0461 10.4757 15.2417 11.0504 15.2424H12.358C12.7091 15.2434 13.0342 15.4276 13.2156 15.7282L13.2378 15.765C13.3743 15.9925 13.3596 16.2799 13.2008 16.4924H11.6812C11.1877 16.4919 10.705 16.6381 10.2947 16.9123L10.1114 17.0344C10.0367 17.0837 9.99398 17.1693 9.99961 17.2587C10.0052 17.3481 10.0582 17.4277 10.1386 17.4672C10.219 17.5069 10.3143 17.5004 10.3887 17.4504L10.5719 17.3283C10.9003 17.1089 11.2864 16.992 11.6813 16.9924H13.9034C14.0378 16.9924 14.1713 16.9707 14.2987 16.9283L17.4884 15.865C17.4925 15.8652 17.4959 15.8674 17.5 15.8674C17.5561 15.8664 17.6101 15.8462 17.653 15.8101L18.9264 15.3857C19.1046 15.3262 19.3009 15.3879 19.413 15.5386C19.4872 15.6365 19.5159 15.7615 19.4921 15.882Z" fill="#FCBF1E"/>
<path d="M10.7127 13.9874C10.848 14.0148 10.98 13.9275 11.0075 13.7922C11.0436 13.6178 11.197 13.4927 11.3751 13.4924C11.4561 13.4921 11.5351 13.5184 11.5999 13.5672C11.7103 13.6495 11.8665 13.627 11.9492 13.517C12.0319 13.4069 12.01 13.2507 11.9002 13.1675C11.749 13.0533 11.5645 12.9918 11.3751 12.9924C10.9595 12.9933 10.6015 13.2856 10.5175 13.6926C10.49 13.8279 10.5774 13.9598 10.7127 13.9874Z" fill="#FCBF1E"/>
<path d="M13.3884 14.07C13.4685 14.1098 13.5637 14.1038 13.6381 14.0543C13.7869 13.9566 13.9838 13.9766 14.1099 14.1022C14.1675 14.1594 14.2047 14.2339 14.216 14.3143C14.2335 14.4373 14.3389 14.5288 14.4632 14.529C14.4751 14.5289 14.487 14.5281 14.4989 14.5265C14.6356 14.507 14.7306 14.3804 14.7111 14.2437C14.6687 13.9468 14.4771 13.6922 14.2034 13.5693C13.9298 13.4463 13.6122 13.4721 13.362 13.6375C13.2874 13.6868 13.2448 13.7721 13.2502 13.8614C13.2556 13.9506 13.3083 14.0301 13.3884 14.07Z" fill="#FCBF1E"/>
</g>
<defs>
<clipPath id="clip0">
<rect width="15" height="15" fill="white" transform="translate(5 5)"/>
</clipPath>
</defs>
</svg>
