<svg width="85" height="85" viewBox="0 0 85 85" fill="none" xmlns="http://www.w3.org/2000/svg">
<path d="M1 5C1 2.79086 2.79086 1 5 1H80C82.2091 1 84 2.79086 84 5V62.2269C84 65.589 81.6097 68.4763 78.3066 69.1039L5.74663 82.8903C3.28224 83.3585 1 81.469 1 78.9605V5Z" fill="#EDF6FF" stroke="#0779E4" stroke-width="2"/>
<g clip-path="url(#clip0)">
<path d="M34.5781 61.0002C38.7595 61.0002 42.1531 57.6401 42.1531 53.5001V46H34.5781C30.3967 46 27.0031 49.36 27.0031 53.5001C27.0031 57.6401 30.3967 61.0002 34.5781 61.0002Z" fill="#0ACF83"/>
<path d="M27.0031 38.5C27.0031 34.36 30.3967 31 34.5781 31H42.1531V45.9999H34.5781C30.3967 45.9999 27.0031 42.64 27.0031 38.5Z" fill="#A259FF"/>
<path d="M27.0033 23.5C27.0033 19.36 30.3969 16 34.5783 16H42.1533V31H34.5783C30.3969 31 27.0033 27.64 27.0033 23.5Z" fill="#F24E1E"/>
<path d="M42.1531 16H49.7281C53.9095 16 57.3032 19.36 57.3032 23.5C57.3032 27.64 53.9095 31 49.7281 31H42.1531V16Z" fill="#FF7262"/>
<path d="M57.3032 38.5C57.3032 42.64 53.9095 45.9999 49.7281 45.9999C45.5467 45.9999 42.1531 42.64 42.1531 38.5C42.1531 34.36 45.5467 31 49.7281 31C53.9095 31 57.3032 34.36 57.3032 38.5Z" fill="#1ABCFE"/>
</g>
<defs>
<clipPath id="clip0">
<rect width="30.3061" height="45" fill="white" transform="translate(27 16)"/>
</clipPath>
</defs>
</svg>
