<svg width="85" height="85" viewBox="0 0 85 85" fill="none" xmlns="http://www.w3.org/2000/svg">
<path d="M1 5C1 2.79086 2.79086 1 5 1H80C82.2091 1 84 2.79086 84 5V62.2269C84 65.589 81.6097 68.4763 78.3066 69.1039L5.74663 82.8903C3.28224 83.3585 1 81.469 1 78.9605V5Z" fill="#EDF6FF" stroke="#0779E4" stroke-width="2"/>
<path d="M26.2402 56.4297L22.6367 16H62.2754L58.6719 56.4297L42.4121 61" fill="#E34F26"/>
<path d="M42.5 57.4844L55.5957 53.8809L58.6719 19.252H42.5" fill="#EF652A"/>
<path d="M42.5 34.2812H35.9082L35.4688 29.1836H42.5V24.2617H42.4121H30.0195L30.1074 25.5801L31.3379 39.291H42.5V34.2812ZM42.5 47.2012H42.4121L36.875 45.707L36.5234 41.752H33.8867H31.6016L32.2168 49.5742L42.4121 52.3867H42.5V47.2012Z" fill="#EBEBEB"/>
<path d="M42.4121 34.2812V39.291H48.5645L47.9492 45.707L42.4121 47.2012V52.3867L52.6074 49.5742L52.6953 48.6953L53.8379 35.5996L54.0137 34.2812H52.6074H42.4121ZM42.4121 24.2617V27.3379V29.1836H54.4531L54.541 28.1289L54.8047 25.5801L54.8926 24.2617H42.4121Z" fill="white"/>
</svg>
