<svg width="85" height="85" viewBox="0 0 85 85" fill="none" xmlns="http://www.w3.org/2000/svg">
<path d="M1 5C1 2.79086 2.79086 1 5 1H80C82.2091 1 84 2.79086 84 5V62.2269C84 65.589 81.6097 68.4763 78.3066 69.1039L5.74663 82.8903C3.28224 83.3585 1 81.469 1 78.9605V5Z" fill="#EDF6FF" stroke="#0779E4" stroke-width="2"/>
<path d="M65 16H20V61H65V16Z" fill="#F7DF1E"/>
<path d="M50.2286 51.1564C51.1351 52.6364 52.3143 53.7243 54.4001 53.7243C56.1522 53.7243 57.2715 52.8486 57.2715 51.6386C57.2715 50.1886 56.1215 49.675 54.1929 48.8314L53.1358 48.3779C50.0843 47.0779 48.0572 45.4493 48.0572 42.0064C48.0572 38.835 50.4736 36.4207 54.2501 36.4207C56.9386 36.4207 58.8715 37.3564 60.2643 39.8064L56.9715 41.9207C56.2465 40.6207 55.4643 40.1086 54.2501 40.1086C53.0115 40.1086 52.2265 40.8943 52.2265 41.9207C52.2265 43.1893 53.0122 43.7029 54.8265 44.4886L55.8836 44.9414C59.4765 46.4821 61.5051 48.0529 61.5051 51.5843C61.5051 55.3914 58.5143 57.4771 54.4979 57.4771C50.5708 57.4771 48.0336 55.6057 46.7922 53.1529L50.2286 51.1564ZM35.2908 51.5229C35.9551 52.7014 36.5593 53.6979 38.0122 53.6979C39.4015 53.6979 40.2779 53.1543 40.2779 51.0407V36.6621H44.5065V51.0979C44.5065 55.4764 41.9393 57.4693 38.1922 57.4693C34.8065 57.4693 32.8458 55.7171 31.8486 53.6068L35.2908 51.5229Z" fill="black"/>
</svg>
