<svg width="85" height="85" viewBox="0 0 85 85" fill="none" xmlns="http://www.w3.org/2000/svg">
<path d="M1 5C1 2.79086 2.79086 1 5 1H80C82.2091 1 84 2.79086 84 5V62.2269C84 65.589 81.6097 68.4763 78.3066 69.1039L5.74663 82.8903C3.28224 83.3585 1 81.469 1 78.9605V5Z" fill="#EDF6FF" stroke="#0779E4" stroke-width="2"/>
<path fill-rule="evenodd" clip-rule="evenodd" d="M63.9456 26.0073C63.9615 26.0663 63.9697 26.1271 63.9698 26.1882V35.6832C63.9698 35.8051 63.9376 35.9248 63.8766 36.0302C63.8155 36.1357 63.7276 36.2231 63.6219 36.2838L55.6526 40.872V49.9664C55.6526 50.2139 55.5211 50.4423 55.3064 50.5669L38.6712 60.1433C38.6331 60.1649 38.5915 60.1788 38.55 60.1935C38.5344 60.1987 38.5197 60.2082 38.5033 60.2125C38.387 60.2431 38.2647 60.2431 38.1485 60.2125C38.1294 60.2073 38.1121 60.1969 38.0939 60.19C38.0559 60.1762 38.0161 60.164 37.9797 60.1433L21.3479 50.5669C21.2422 50.5062 21.1544 50.4188 21.0934 50.3133C21.0323 50.2079 21.0001 50.0882 21 49.9664V21.4814C21 21.419 21.0087 21.3585 21.0242 21.2996C21.0294 21.2797 21.0415 21.2615 21.0485 21.2416C21.0614 21.2053 21.0736 21.1681 21.0926 21.1343C21.1056 21.1118 21.1246 21.0937 21.1402 21.0729C21.1601 21.0452 21.1783 21.0166 21.2016 20.9924C21.2215 20.9725 21.2475 20.9578 21.27 20.9405C21.2951 20.9197 21.3176 20.8972 21.3462 20.8808H21.347L29.6634 16.0926C29.7687 16.032 29.888 16.0001 30.0095 16.0001C30.131 16.0001 30.2504 16.032 30.3557 16.0926L38.672 20.8808H38.6737C38.7014 20.8981 38.7248 20.9197 38.7499 20.9396C38.7724 20.9569 38.7975 20.9725 38.8174 20.9915C38.8416 21.0166 38.8589 21.0452 38.8797 21.0729C38.8944 21.0937 38.9143 21.1118 38.9264 21.1343C38.9463 21.169 38.9576 21.2053 38.9714 21.2416C38.9784 21.2615 38.9905 21.2797 38.9957 21.3005C39.0116 21.3595 39.0198 21.4203 39.0199 21.4814V39.2728L45.9499 35.2825V26.1873C45.9499 26.1267 45.9586 26.0653 45.9741 26.0073C45.9802 25.9865 45.9914 25.9684 45.9984 25.9485C46.0122 25.9121 46.0243 25.8749 46.0434 25.8412C46.0563 25.8187 46.0754 25.8005 46.0901 25.7797C46.1109 25.752 46.1282 25.7235 46.1524 25.6992C46.1723 25.6793 46.1974 25.6646 46.2199 25.6473C46.2459 25.6265 46.2684 25.604 46.2961 25.5876H46.2969L54.6141 20.7994C54.7194 20.7388 54.8388 20.7068 54.9603 20.7068C55.0818 20.7068 55.2012 20.7388 55.3064 20.7994L63.6228 25.5876C63.6522 25.6049 63.6747 25.6265 63.7007 25.6465C63.7223 25.6638 63.7474 25.6793 63.7673 25.6984C63.7915 25.7235 63.8088 25.752 63.8296 25.7797C63.8452 25.8005 63.8642 25.8187 63.8763 25.8412C63.8962 25.8749 63.9075 25.9121 63.9213 25.9485C63.9291 25.9684 63.9404 25.9865 63.9456 26.0073ZM62.5835 35.2825V27.3867L59.6732 29.0621L55.6526 31.377V39.2728L62.5843 35.2825H62.5835ZM54.2671 49.5657V41.6647L50.3123 43.9234L39.019 50.3688V58.3441L54.2671 49.5657ZM22.3863 22.6799V49.5657L37.6327 58.3433V50.3696L29.6677 45.8618L29.6651 45.8601L29.6616 45.8584C29.6348 45.8428 29.6123 45.8203 29.5872 45.8013C29.5656 45.784 29.5405 45.7701 29.5214 45.7511L29.5197 45.7485C29.4972 45.7268 29.4816 45.7 29.4626 45.6758C29.4453 45.6524 29.4245 45.6325 29.4107 45.6083L29.4098 45.6057C29.3942 45.5797 29.3847 45.5486 29.3735 45.5191C29.3622 45.4932 29.3475 45.469 29.3406 45.4413V45.4404C29.3319 45.4075 29.3302 45.3729 29.3267 45.3391C29.3233 45.3132 29.3163 45.2872 29.3163 45.2613V45.2595V26.6702L25.2966 24.3544L22.3863 22.6808V22.6799ZM30.0104 17.4928L23.0812 21.4814L30.0087 25.4699L36.9369 21.4805L30.0087 17.4928H30.0104ZM33.6138 42.3847L37.6336 40.0707V22.6799L34.7233 24.3553L30.7027 26.6702V44.061L33.6138 42.3847ZM54.9603 22.1996L48.032 26.1882L54.9603 30.1767L61.8877 26.1873L54.9603 22.1996ZM54.2671 31.377L50.2465 29.0621L47.3363 27.3867V35.2825L51.356 37.5965L54.2671 39.2728V31.377ZM38.325 49.1702L48.4872 43.3687L53.567 40.4696L46.6439 36.4837L38.6729 41.0728L31.408 45.2552L38.325 49.1702Z" fill="#FF2D20"/>
</svg>
