<svg width="85" height="85" viewBox="0 0 85 85" fill="none" xmlns="http://www.w3.org/2000/svg">
<path d="M1 5C1 2.79086 2.79086 1 5 1H80C82.2091 1 84 2.79086 84 5V62.2269C84 65.589 81.6097 68.4763 78.3066 69.1039L5.74663 82.8903C3.28224 83.3585 1 81.469 1 78.9605V5Z" fill="#EDF6FF" stroke="#0779E4" stroke-width="2"/>
<g clip-path="url(#clip0)">
<path d="M32.3311 28.4727C32.5185 28.4727 32.7088 28.4331 32.8897 28.3495L52.7302 19.1758C53.3948 18.8685 53.683 18.0838 53.3739 17.423C53.0651 16.7623 52.2756 16.4757 51.6113 16.7829L31.7711 25.9565C31.1064 26.2637 30.8182 27.0485 31.1272 27.7093C31.352 28.19 31.8311 28.4727 32.3312 28.4727H32.3311ZM51.6114 22.3908L31.7711 31.5643C31.1064 31.8715 30.8182 32.6562 31.1272 33.3169C31.3519 33.7978 31.8309 34.0804 32.3312 34.0804C32.5186 34.0804 32.7088 34.0409 32.8898 33.9571L52.7303 24.7837C53.3948 24.4764 53.6831 23.6916 53.374 23.0309C53.0651 22.3701 52.2757 22.0835 51.6114 22.3908V22.3908ZM51.6114 28.0458L31.7711 37.2193C31.1064 37.5265 30.8182 38.3111 31.1272 38.9719C31.3519 39.4527 31.8309 39.7354 32.3312 39.7354C32.5186 39.7354 32.7088 39.6958 32.8898 39.612L52.7303 30.4387C53.3948 30.1314 53.6831 29.3466 53.374 28.6859C53.0651 28.0251 52.2757 27.7385 51.6114 28.0457V28.0458ZM32.3311 22.8806C32.5189 22.8806 32.7097 22.8408 32.8911 22.7567L42.0374 18.5156C42.7017 18.2077 42.9888 17.4226 42.6792 16.7621C42.3693 16.1016 41.5799 15.8161 40.9157 16.1239L31.7695 20.365C31.1053 20.673 30.818 21.4581 31.1277 22.1185C31.3529 22.5986 31.8315 22.8806 32.3311 22.8806ZM51.6063 33.6558L44.5926 36.9344C44.3647 37.041 44.172 37.2099 44.037 37.4213C43.902 37.6328 43.8303 37.878 43.8303 38.1285V44.7146H40.7657V39.798C40.7657 39.0692 40.1717 38.4786 39.4388 38.4786C38.7059 38.4786 38.1119 39.0692 38.1119 39.798V44.7146H36.2102C35.6455 44.7146 35.2184 45.2226 35.3185 45.7754L35.7661 48.2459C35.8037 48.4538 35.9137 48.642 36.0767 48.7775C36.2397 48.9129 36.4454 48.9872 36.6578 48.9871H41.3134L36.3821 49.8775C36.209 49.9088 36.0554 50.0071 35.9552 50.151C35.855 50.2948 35.8164 50.4723 35.8478 50.6444C35.8756 50.7964 35.956 50.9338 36.0752 51.0328C36.1943 51.1319 36.3445 51.1863 36.4998 51.1865C36.5393 51.1865 36.5792 51.183 36.6192 51.1757L47.9295 49.1335C48.0986 49.103 48.249 49.0081 48.3489 48.869C48.5831 48.7369 48.7548 48.5044 48.7983 48.2237L49.182 45.753C49.2668 45.2071 48.842 44.7146 48.2866 44.7146H46.4841V38.9663L52.7354 36.044C53.3985 35.734 53.6834 34.948 53.3716 34.2886C53.06 33.6294 52.2698 33.3458 51.6062 33.6558H51.6063ZM47.6925 51.197L36.3822 53.2391C36.209 53.2703 36.0555 53.3686 35.9553 53.5124C35.8551 53.6562 35.8164 53.8337 35.8478 54.0059C35.8756 54.1578 35.956 54.2953 36.0751 54.3943C36.1942 54.4934 36.3445 54.5478 36.4998 54.548C36.5391 54.548 36.5791 54.5445 36.6191 54.5372L47.9294 52.4951C48.0152 52.4797 48.097 52.4476 48.1702 52.4007C48.2435 52.3538 48.3067 52.293 48.3563 52.2218C48.4059 52.1505 48.441 52.0703 48.4594 51.9856C48.4778 51.901 48.4793 51.8135 48.4637 51.7283C48.3982 51.3699 48.0533 51.1308 47.6925 51.197ZM47.6925 54.6843L36.3822 56.7261C36.2964 56.7415 36.2146 56.7736 36.1414 56.8206C36.0681 56.8675 36.0049 56.9283 35.9553 56.9995C35.9056 57.0707 35.8706 57.1509 35.8522 57.2356C35.8337 57.3203 35.8323 57.4078 35.8478 57.493C35.8756 57.6449 35.956 57.7824 36.0751 57.8814C36.1942 57.9805 36.3445 58.0349 36.4998 58.0351C36.5391 58.0351 36.5791 58.0316 36.6191 58.0243L47.9294 55.9822C48.0152 55.9668 48.097 55.9347 48.1702 55.8878C48.2435 55.8409 48.3067 55.7801 48.3563 55.7089C48.4059 55.6377 48.441 55.5574 48.4594 55.4728C48.4778 55.3881 48.4793 55.3006 48.4637 55.2154C48.3982 54.857 48.0533 54.6179 47.6925 54.6841V54.6843ZM46.3398 58.2016L37.9044 59.6469C37.7326 59.6782 37.5801 59.7757 37.4801 59.9182C37.3801 60.0606 37.3407 60.2365 37.3703 60.4077C37.4 60.579 37.4963 60.7316 37.6385 60.8326C37.7807 60.9336 37.9572 60.9747 38.1296 60.9471L46.5651 59.502C46.7385 59.4723 46.893 59.3753 46.9945 59.2323C47.096 59.0894 47.1362 58.9122 47.1064 58.7397C47.0441 58.3809 46.7016 58.1411 46.3398 58.2016Z" fill="#E54537"/>
</g>
<defs>
<clipPath id="clip0">
<rect width="22.5" height="45" fill="white" transform="translate(31 16)"/>
</clipPath>
</defs>
</svg>
