<svg width="25" height="25" viewBox="0 0 25 25" fill="none" xmlns="http://www.w3.org/2000/svg">
<circle cx="12.5" cy="12.5" r="12.5" fill="#FFF6DE"/>
<path d="M17.6855 20C17.3619 20 17.0996 19.7377 17.0996 19.4141C17.0996 17.1201 15.2334 15.2539 12.9395 15.2539H12.0605C9.76663 15.2539 7.90039 17.1201 7.90039 19.4141C7.90039 19.7377 7.63807 20 7.31445 20C6.99084 20 6.72852 19.7377 6.72852 19.4141C6.72852 16.474 9.12046 14.082 12.0605 14.082H12.9395C15.8795 14.082 18.2715 16.474 18.2715 19.4141C18.2715 19.7377 18.0092 20 17.6855 20Z" fill="#FCBF1E"/>
<path d="M12.4414 12.9102C10.2606 12.9102 8.48633 11.1359 8.48633 8.95508C8.48633 6.77425 10.2606 5 12.4414 5C14.6222 5 16.3965 6.77425 16.3965 8.95508C16.3965 11.1359 14.6222 12.9102 12.4414 12.9102ZM12.4414 6.17188C10.9067 6.17188 9.6582 7.42042 9.6582 8.95508C9.6582 10.4897 10.9067 11.7383 12.4414 11.7383C13.9761 11.7383 15.2246 10.4897 15.2246 8.95508C15.2246 7.42042 13.9761 6.17188 12.4414 6.17188Z" fill="#FCBF1E"/>
</svg>
