<svg width="85" height="85" viewBox="0 0 85 85" fill="none" xmlns="http://www.w3.org/2000/svg">
<path d="M1 5C1 2.79086 2.79086 1 5 1H80C82.2091 1 84 2.79086 84 5V62.2269C84 65.589 81.6097 68.4763 78.3066 69.1039L5.74663 82.8903C3.28224 83.3585 1 81.469 1 78.9605V5Z" fill="#EDF6FF" stroke="#0779E4" stroke-width="2"/>
<path d="M45.6411 31.0133L44.1011 33.7247L38.8344 24.4494L22.6666 52.9192H33.6133C33.6133 54.4167 34.8072 55.6306 36.28 55.6306H22.6666C21.714 55.6306 20.8339 55.1136 20.3576 54.2747C19.8814 53.4358 19.8814 52.4023 20.3578 51.5635L36.5255 23.0937C37.0019 22.2547 37.8822 21.7379 38.835 21.7379C39.7877 21.7379 40.6681 22.2547 41.1444 23.0937L45.6411 31.0133V31.0133Z" fill="#00C58E"/>
<path d="M57.3123 51.5635L47.1812 33.7247L45.6412 31.0132L44.1012 33.7247L33.9712 51.5635C33.4948 52.4023 33.4948 53.4358 33.971 54.2746C34.4473 55.1135 35.3274 55.6306 36.28 55.6306H55C55.9529 55.6306 56.8334 55.1141 57.3099 54.2751C57.7864 53.4362 57.7864 52.4025 57.31 51.5635H57.3123ZM36.28 52.9192L45.6412 36.4361L55 52.9192H36.28H36.28Z" fill="#2F495E"/>
<path d="M64.5554 54.2749C64.0792 55.1137 63.1991 55.6306 62.2465 55.6306H54.9999C56.4726 55.6306 57.6665 54.4167 57.6665 52.9192H62.241L49.261 30.0609L47.181 33.7247L45.641 31.0133L46.9521 28.7052C47.4284 27.8663 48.3088 27.3494 49.2615 27.3494C50.2143 27.3494 51.0946 27.8663 51.571 28.7052L64.5554 51.5635C65.0318 52.4024 65.0318 53.436 64.5554 54.2749Z" fill="#108775"/>
</svg>
