<svg width="25" height="25" viewBox="0 0 25 25" fill="none" xmlns="http://www.w3.org/2000/svg">
<circle cx="12.5" cy="12.5" r="12.5" fill="#FFF6DE"/>
<g clip-path="url(#clip0)">
<path d="M8.05653 14.971C9.53601 16.7395 11.317 18.132 13.3497 19.1173C14.1237 19.484 15.1587 19.9192 16.3118 19.9938C16.3833 19.9969 16.4517 20 16.5232 20C17.2971 20 17.9187 19.7327 18.4254 19.1826C18.4285 19.1794 18.4347 19.1732 18.4378 19.167C18.6181 18.9494 18.8232 18.7536 19.0377 18.5454C19.1838 18.4055 19.333 18.2594 19.4759 18.1102C20.138 17.4202 20.138 16.5437 19.4697 15.8755L17.6017 14.0075C17.2847 13.678 16.9055 13.5039 16.5076 13.5039C16.1098 13.5039 15.7275 13.678 15.4011 14.0044L14.2884 15.1171C14.1858 15.058 14.0802 15.0052 13.9807 14.9554C13.8564 14.8933 13.7414 14.8342 13.6388 14.769C12.6255 14.1256 11.7055 13.2864 10.8259 12.2078C10.3814 11.6453 10.0831 11.1728 9.8748 10.691C10.167 10.4269 10.4405 10.1502 10.7047 9.87982C10.7979 9.78346 10.8943 9.68711 10.9906 9.59076C11.3263 9.25508 11.5066 8.86656 11.5066 8.47182C11.5066 8.07708 11.3294 7.68856 10.9906 7.35288L10.0644 6.42665C9.95562 6.31786 9.85305 6.21218 9.74737 6.1034C9.54223 5.89204 9.32777 5.67447 9.11641 5.47866C8.79627 5.16473 8.42018 5 8.02234 5C7.6276 5 7.2484 5.16473 6.91583 5.48177L5.75337 6.64422C5.33066 7.06693 5.09134 7.57978 5.0416 8.17344C4.98255 8.91629 5.11931 9.70576 5.47364 10.66C6.01757 12.1363 6.83812 13.507 8.05653 14.971ZM5.8 8.23871C5.8373 7.82532 5.99581 7.48031 6.2942 7.18193L7.45043 6.02569C7.63071 5.85164 7.82963 5.7615 8.02234 5.7615C8.21193 5.7615 8.40464 5.85164 8.58181 6.03191C8.79005 6.22462 8.98587 6.42665 9.19722 6.64111C9.3029 6.7499 9.41169 6.85868 9.52047 6.97058L10.4467 7.89681C10.6394 8.08951 10.7389 8.28533 10.7389 8.47804C10.7389 8.67074 10.6394 8.86656 10.4467 9.05926C10.3504 9.15562 10.254 9.25508 10.1576 9.35143C9.86859 9.6436 9.59818 9.92022 9.29979 10.1844C9.29358 10.1906 9.29047 10.1937 9.28425 10.2C9.02627 10.4579 9.06668 10.7035 9.12884 10.89C9.13195 10.8993 9.13506 10.9055 9.13817 10.9148C9.3775 11.4898 9.71007 12.0369 10.2291 12.6896C11.1616 13.8396 12.1438 14.7317 13.2254 15.4186C13.3591 15.5056 13.502 15.574 13.6357 15.6424C13.76 15.7045 13.875 15.7636 13.9776 15.8288C13.99 15.8351 13.9993 15.8413 14.0118 15.8475C14.1143 15.9003 14.2138 15.9252 14.3133 15.9252C14.5619 15.9252 14.7235 15.7667 14.7764 15.7138L15.9388 14.5514C16.1191 14.3711 16.3149 14.2748 16.5076 14.2748C16.7439 14.2748 16.9366 14.4208 17.0578 14.5514L18.932 16.4225C19.305 16.7955 19.3019 17.1995 18.9227 17.5943C18.7921 17.7341 18.6554 17.8678 18.5093 18.0077C18.2917 18.219 18.0648 18.4366 17.8597 18.6821C17.5022 19.0676 17.0764 19.2478 16.5263 19.2478C16.4734 19.2478 16.4175 19.2447 16.3647 19.2416C15.3452 19.1763 14.3972 18.7785 13.6854 18.4397C11.7521 17.5041 10.0551 16.177 8.64708 14.4923C7.48773 13.0968 6.70758 11.7976 6.19163 10.4051C5.87148 9.55035 5.75027 8.86345 5.8 8.23871Z" fill="#FCBF1E"/>
</g>
<defs>
<clipPath id="clip0">
<rect width="15" height="15" fill="white" transform="translate(5 5)"/>
</clipPath>
</defs>
</svg>
