<svg width="85" height="85" viewBox="0 0 85 85" fill="none" xmlns="http://www.w3.org/2000/svg">
<path d="M1 5C1 2.79086 2.79086 1 5 1H80C82.2091 1 84 2.79086 84 5V62.2269C84 65.589 81.6097 68.4763 78.3066 69.1039L5.74663 82.8903C3.28224 83.3585 1 81.469 1 78.9605V5Z" fill="#EDF6FF" stroke="#0779E4" stroke-width="2"/>
<path d="M67.531 39.322C67.531 35.853 63.339 32.5655 56.9119 30.5269C58.3951 23.7384 57.7359 18.3375 54.8313 16.6084C54.1618 16.2028 53.379 16.0107 52.5241 16.0107V18.3909C52.9979 18.3909 53.379 18.487 53.6983 18.6684C55.0991 19.501 55.7068 22.671 55.233 26.7484C55.1197 27.7517 54.9343 28.8084 54.7077 29.8865C52.6889 29.3741 50.4848 28.9792 48.1673 28.723C46.7768 26.7484 45.3349 24.9552 43.8826 23.3862C47.2403 20.1521 50.3921 18.3802 52.5344 18.3802V16C49.702 16 45.994 18.092 42.2449 21.7211C38.4958 18.1134 34.7878 16.0427 31.9554 16.0427V18.4229C34.0874 18.4229 37.2495 20.1841 40.6072 23.3969C39.1653 24.9659 37.7233 26.7484 36.3534 28.723C34.0256 28.9792 31.8215 29.3741 29.8027 29.8971C29.5658 28.8298 29.3907 27.7944 29.2671 26.8018C28.783 22.7244 29.3804 19.5543 30.7709 18.7111C31.0799 18.519 31.4816 18.4336 31.9554 18.4336V16.0534C31.0902 16.0534 30.3074 16.2455 29.6276 16.6511C26.7333 18.3802 26.0845 23.7704 27.5779 30.5375C21.1714 32.5869 17 35.8637 17 39.322C17 42.7909 21.192 46.0784 27.6191 48.1171C26.136 54.9056 26.7951 60.3064 29.6997 62.0356C30.3692 62.4412 31.152 62.6333 32.0172 62.6333C34.8496 62.6333 38.5576 60.5413 42.3067 56.9122C46.0558 60.5199 49.7638 62.5906 52.5962 62.5906C53.4614 62.5906 54.2442 62.3985 54.924 61.9929C57.8183 60.2637 58.4671 54.8735 56.9737 48.1064C63.3596 46.0677 67.531 42.7803 67.531 39.322ZM54.1206 32.2026C53.7395 33.5795 53.2657 34.9991 52.7301 36.4187C52.3078 35.5648 51.865 34.711 51.3809 33.8571C50.9071 33.0032 50.4024 32.1706 49.8977 31.3594C51.3603 31.5836 52.7713 31.8611 54.1206 32.2026ZM49.4033 43.5701C48.5999 45.0111 47.7759 46.3773 46.921 47.6475C45.3864 47.7862 43.8311 47.8609 42.2655 47.8609C40.7102 47.8609 39.155 47.7862 37.6306 47.6581C36.7757 46.388 35.9414 45.0324 35.138 43.6021C34.3552 42.2039 33.6445 40.7843 32.9956 39.354C33.6342 37.9237 34.3552 36.4935 35.1277 35.0952C35.9311 33.6543 36.7551 32.288 37.61 31.0179C39.1447 30.8791 40.6999 30.8044 42.2655 30.8044C43.8208 30.8044 45.3761 30.8791 46.9004 31.0072C47.7553 32.2774 48.5896 33.6329 49.393 35.0632C50.1758 36.4614 50.8865 37.881 51.5354 39.3113C50.8865 40.7416 50.1758 42.1719 49.4033 43.5701ZM52.7301 42.1825C53.2863 43.6128 53.7601 45.0431 54.1515 46.4307C52.8022 46.7722 51.3809 47.0604 49.908 47.2845C50.4127 46.4627 50.9174 45.6195 51.3912 44.7549C51.865 43.901 52.3078 43.0364 52.7301 42.1825ZM42.2861 53.5713C41.3282 52.5467 40.3703 51.4046 39.4227 50.1558C40.3497 50.1985 41.2973 50.2305 42.2552 50.2305C43.2234 50.2305 44.1813 50.2091 45.1186 50.1558C44.1916 51.4046 43.2337 52.5467 42.2861 53.5713ZM34.623 47.2845C33.1604 47.0604 31.7494 46.7829 30.4001 46.4413C30.7812 45.0644 31.255 43.6448 31.7906 42.2252C32.2129 43.0791 32.6558 43.933 33.1398 44.7869C33.6239 45.6408 34.1183 46.4734 34.623 47.2845ZM42.2346 25.0726C43.1925 26.0973 44.1504 27.2394 45.098 28.4882C44.171 28.4455 43.2234 28.4135 42.2655 28.4135C41.2973 28.4135 40.3394 28.4348 39.4021 28.4882C40.3291 27.2394 41.287 26.0973 42.2346 25.0726ZM34.6127 31.3594C34.108 32.1813 33.6033 33.0245 33.1295 33.8891C32.6558 34.743 32.2129 35.5969 31.7906 36.4508C31.2344 35.0205 30.7606 33.5902 30.3692 32.2026C31.7185 31.8718 33.1398 31.5836 34.6127 31.3594ZM25.2914 44.7229C21.6452 43.1111 19.2866 40.9978 19.2866 39.322C19.2866 37.6462 21.6452 35.5222 25.2914 33.9211C26.1772 33.5262 27.1453 33.1739 28.1444 32.8431C28.7315 34.9351 29.504 37.1125 30.4619 39.3433C29.5143 41.5635 28.7521 43.7302 28.1753 45.8116C27.1556 45.4807 26.1875 45.1178 25.2914 44.7229ZM30.8327 59.9756C29.4319 59.143 28.8242 55.9729 29.298 51.8956C29.4113 50.8923 29.5967 49.8356 29.8233 48.7575C31.8421 49.2699 34.0462 49.6648 36.3637 49.9209C37.7542 51.8956 39.1961 53.6888 40.6484 55.2578C37.2907 58.4919 34.1389 60.2637 31.9966 60.2637C31.5331 60.2531 31.1417 60.157 30.8327 59.9756ZM55.2639 51.8422C55.748 55.9196 55.1506 59.0896 53.7601 59.9329C53.4511 60.125 53.0494 60.2104 52.5756 60.2104C50.4436 60.2104 47.2815 58.4492 43.9238 55.2364C45.3658 53.6674 46.8077 51.8849 48.1776 49.9103C50.5054 49.6541 52.7095 49.2592 54.7283 48.7362C54.9652 49.8142 55.1506 50.8496 55.2639 51.8422ZM59.2293 44.7229C58.3436 45.1178 57.3754 45.47 56.3763 45.8009C55.7892 43.7089 55.0167 41.5314 54.0588 39.3006C55.0064 37.0805 55.7686 34.9138 56.3454 32.8324C57.3651 33.1633 58.3332 33.5262 59.2396 33.9211C62.8858 35.5328 65.2444 37.6462 65.2444 39.322C65.2341 40.9978 62.8755 43.1218 59.2293 44.7229Z" fill="#61DAFB"/>
<path d="M42.2552 44.1997C44.8549 44.1997 46.9623 42.0158 46.9623 39.3219C46.9623 36.628 44.8549 34.4441 42.2552 34.4441C39.6556 34.4441 37.5482 36.628 37.5482 39.3219C37.5482 42.0158 39.6556 44.1997 42.2552 44.1997Z" fill="#61DAFB"/>
</svg>
