<svg width="25" height="25" viewBox="0 0 25 25" fill="none" xmlns="http://www.w3.org/2000/svg">
<circle cx="12.5" cy="12.5" r="12.5" fill="#FFF6DE"/>
<path d="M12.5 5.02454C16.6355 5.02454 20 8.38902 20 12.5245C19.6229 22.4606 5.37556 22.4579 5.00003 12.5244C5.00003 8.38902 8.36451 5.02454 12.5 5.02454ZM8.98783 18.4784C9.62325 18.8547 10.3238 19.1322 11.0681 19.2895C9.61918 17.1623 9.14023 14.2319 9.77899 11.2793C9.18679 11.0547 8.58676 10.9029 7.99599 10.8285C7.35271 13.7122 7.97182 17.0601 8.98783 18.4784ZM9.1323 10.4533C10.33 10.7726 11.5084 11.3718 12.5507 12.19C13.2441 11.9114 13.8873 11.5598 14.4641 11.1517C12.1943 9.13017 9.37007 8.16209 6.84591 8.54927C6.46953 9.08303 6.16672 9.67219 5.95238 10.3019C6.94786 10.1105 8.03653 10.1612 9.1323 10.4533ZM17.6973 7.9694C16.9395 10.1513 14.9644 11.859 12.7644 12.7356C12.659 13.4754 12.6418 14.2083 12.7069 14.9119C15.5935 13.9566 17.8445 11.9936 18.7707 9.61295C18.4914 9.01366 18.1285 8.4608 17.6973 7.9694ZM7.363 7.90158C9.9282 7.71235 12.703 8.7627 14.9389 10.7907C15.4296 10.3901 15.861 9.94638 16.2208 9.47195C14.0449 7.47285 10.8357 6.33504 9.09945 6.50599C8.44757 6.87575 7.86137 7.34836 7.363 7.90158ZM10.3075 5.96672C12.4711 6.26954 14.9622 7.52962 16.5574 8.986C16.8579 8.50843 17.0873 8.00605 17.2345 7.49022C15.5238 5.80782 12.6464 5.13522 10.3075 5.96672ZM19.0745 10.3823C17.9566 12.7007 15.6583 14.5806 12.7821 15.5036C12.8837 16.1288 13.0522 16.7244 13.2832 17.2732C16.1042 16.3878 18.6956 14.1753 19.4138 12.586C19.4209 11.8211 19.3009 11.0745 19.0745 10.3823ZM19.2758 13.9043C17.9318 15.6268 15.5948 17.1543 13.5358 17.8076C13.7999 18.3079 14.1213 18.7589 14.4957 19.145C16.9078 18.4166 18.7677 16.4031 19.2758 13.9043ZM13.8492 19.3064C12.3363 17.5594 11.844 14.9929 12.1851 12.6479C11.5971 12.1867 10.9709 11.8055 10.3291 11.5101C9.71302 14.4879 10.2877 17.4192 11.8867 19.4116C12.5362 19.4701 13.22 19.4327 13.8492 19.3064ZM7.91398 17.6946C7.09719 15.6701 6.94376 12.8876 7.40686 10.78C6.84148 10.7586 6.29018 10.8114 5.76855 10.9426C5.15809 13.3845 6.08899 16.131 7.91398 17.6946Z" fill="#FCBF1E"/>
</svg>
